<?xml version="1.0" encoding="utf-8"?>
<!-- Generator: Adobe Illustrator 24.0.2, SVG Export Plug-In . SVG Version: 6.00 Build 0)  -->
<svg version="1.1" id="Capa_1" xmlns="http://www.w3.org/2000/svg" xmlns:xlink="http://www.w3.org/1999/xlink" x="0px" y="0px"
	 viewBox="0 0 512 512" style="enable-background:new 0 0 512 512;" xml:space="preserve">
<style type="text/css">
	.st0{fill:#FFFFFF;}
</style>
<g>
	<path class="st0" d="M5.9,68.9v28.5H0v-70h23.9c7.3,0,13,1.9,17.2,5.6s6.3,8.8,6.3,15.3c0,6.6-2,11.7-6.1,15.2
		c-4.1,3.6-9.9,5.4-17.6,5.4C23.7,68.9,5.9,68.9,5.9,68.9z M5.9,63.9h17.9c5.7,0,10.1-1.4,13.1-4.1s4.5-6.5,4.5-11.4
		s-1.5-8.7-4.5-11.6s-7.3-4.3-12.8-4.4H5.9V63.9z"/>
	<path class="st0" d="M86.8,68.2H66.5v29.2h-6v-70h22.8c7.5,0,13.3,1.8,17.5,5.4s6.3,8.7,6.3,15.2c0,4.5-1.3,8.4-3.9,11.9
		c-2.6,3.4-6.2,5.8-10.6,7.1l17.5,29.8v0.6h-6.3L86.8,68.2z M66.5,63.2h18.1c5,0,9-1.4,12-4.2c3-2.8,4.5-6.5,4.5-11
		c0-4.9-1.6-8.8-4.7-11.5s-7.6-4.1-13.2-4.1H66.5V63.2z M81,18.3L89.3,9h5.1v0.6L83,22.1h-4.1L67.6,9.5V9h5.1L81,18.3z"/>
	<path class="st0" d="M161.9,63.8h-32.8v28.6h37.7v5h-43.6v-70h43.4v5h-37.4v26.5H162L161.9,63.8L161.9,63.8z"/>
	<path class="st0" d="M218.9,80.2c0-3.9-1.4-7-4.1-9.2c-2.7-2.3-7.7-4.4-15-6.4c-7.2-2-12.5-4.3-15.9-6.7c-4.7-3.4-7.1-7.9-7.1-13.4
		c0-5.4,2.2-9.7,6.6-13.1c4.4-3.4,10-5,16.9-5c4.7,0,8.8,0.9,12.5,2.7c3.7,1.8,6.5,4.3,8.5,7.5s3,6.8,3,10.7h-6
		c0-4.8-1.6-8.6-4.9-11.6c-3.3-2.9-7.7-4.4-13.2-4.4c-5.4,0-9.6,1.2-12.8,3.6s-4.8,5.5-4.8,9.4c0,3.6,1.4,6.5,4.3,8.7
		c2.9,2.2,7.4,4.2,13.7,6c6.3,1.7,11,3.5,14.3,5.3c3.2,1.8,5.7,4,7.3,6.6s2.5,5.6,2.5,9.1c0,5.5-2.2,9.9-6.6,13.3
		c-4.4,3.3-10.2,5-17.4,5c-4.9,0-9.5-0.9-13.6-2.6c-4.1-1.8-7.2-4.2-9.4-7.4c-2.1-3.2-3.2-6.8-3.2-10.9h5.9c0,4.9,1.8,8.8,5.5,11.7
		c3.7,2.9,8.6,4.3,14.7,4.3c5.5,0,9.8-1.2,13.1-3.6C217.3,87.4,218.9,84.2,218.9,80.2z"/>
</g>
<path class="st0" d="M108.4,395.6H59V205.2L0,223.5v-40.2l103.1-36.9h5.3V395.6z"/>
<path class="st0" d="M512,292.7c0,34.4-7.1,60.7-21.4,79C476.4,389.9,455.5,399,428,399c-27.1,0-47.9-8.9-62.2-26.8
	c-14.4-17.9-21.7-43.5-22-76.9v-45.8c0-34.8,7.2-61.1,21.6-79.1s35.2-27,62.3-27c27.1,0,47.9,8.9,62.2,26.7
	c14.4,17.8,21.7,43.4,22,76.8v45.8H512z M462.6,242.4c0-20.6-2.8-35.7-8.5-45.1c-5.6-9.4-14.4-14.1-26.4-14.1
	c-11.6,0-20.2,4.5-25.7,13.4c-5.5,9-8.5,23-8.8,42v60.6c0,20.3,2.8,35.4,8.3,45.3s14.4,14.8,26.6,14.8c12.1,0,20.8-4.7,26.1-14.2
	c5.4-9.5,8.1-23.9,8.4-43.5V242.4z"/>
<path class="st0" d="M152.8,272l14.5-127.7H308V186h-99.9l-6.2,54c11.8-6.3,24.4-9.5,37.8-9.5c23.9,0,42.7,7.4,56.2,22.3
	c13.6,14.8,20.4,35.6,20.4,62.3c0,16.2-3.4,30.7-10.3,43.6c-6.8,12.8-16.6,22.8-29.4,29.8c-12.8,7.1-27.8,10.6-45.2,10.6
	c-15.2,0-29.3-3.1-42.3-9.2c-13-6.2-23.3-14.8-30.8-26c-7.5-11.2-11.5-23.9-12-38.1h49.3c1,10.5,4.7,18.6,11,24.4
	c6.3,5.8,14.5,8.7,24.6,8.7c11.3,0,20-4.1,26-12.2c6.1-8.1,9.1-19.6,9.1-34.4c0-14.3-3.5-25.2-10.5-32.8c-7-7.6-17-11.4-29.8-11.4
	c-11.8,0-21.5,3.1-28.8,9.3l-4.8,4.5L152.8,272z"/>
</svg>
