<svg width="72" height="54" viewBox="0 0 72 54" fill="none" xmlns="http://www.w3.org/2000/svg">
<g clip-path="url(#clip0)">
<path d="M14.9223 53.6263H8.20725V27.2803L0 29.7094V24.1038L14.3627 19.0588H14.9223V53.6263Z" fill="white"/>
<path d="M41.0363 40.5467H44.9534V46.1523H41.0363V53.6263H34.1347V46.1523H19.9586L19.5855 41.8547L33.9482 19.0588H41.0363V40.5467ZM26.6736 40.5467H34.3213V28.4014L33.9482 29.1488L26.6736 40.5467Z" fill="white"/>
<path d="M72 39.4256C72 44.2837 71.0674 47.8339 69.0156 50.4498C66.9637 53.0657 64.1658 54.1868 60.4353 54.1868C56.7047 54.1868 53.7202 52.8789 51.8549 50.4498C49.9897 48.0208 48.8705 44.4706 48.8705 39.7993V33.4464C48.8705 28.5882 49.8031 25.0381 51.8549 22.4221C53.9068 19.9931 56.7047 18.6851 60.4353 18.6851C64.1658 18.6851 67.1503 19.9931 69.0156 22.4221C70.8808 24.8512 72 28.4014 72 33.0727V39.4256ZM65.0985 32.3253C65.0985 29.5225 64.7254 27.4671 63.9793 26.1592C63.2332 24.8512 61.9275 24.2907 60.2487 24.2907C58.57 24.2907 57.4508 24.8512 56.7047 26.1592C55.9586 27.4671 55.5855 29.3356 55.399 31.9516V40.3599C55.399 43.1626 55.772 45.218 56.5181 46.7128C57.2643 48.0208 58.57 48.7682 60.2487 48.7682C61.9275 48.7682 63.0467 48.0208 63.7928 46.7128C64.5389 45.4048 64.9119 43.3495 64.9119 40.7336V32.3253H65.0985Z" fill="white"/>
<path d="M2.23836 8.22144V12.1453H1.49225V2.42905H4.66323C5.59588 2.42905 6.34199 2.6159 7.0881 3.17645C7.83422 3.73701 8.02075 4.29756 8.02075 5.23182C8.02075 6.16607 7.83422 6.72663 7.27463 7.28718C6.52852 7.84773 5.7824 8.22144 4.66323 8.22144H2.23836ZM2.23836 7.47403H4.66323C5.40935 7.47403 5.96893 7.28718 6.52852 6.91348C6.90158 6.53977 7.0881 5.97922 7.0881 5.41867C7.0881 4.67126 6.90158 4.29756 6.52852 3.92386C6.15546 3.55015 5.59588 3.17645 4.84976 3.17645H2.23836V7.47403Z" fill="white"/>
<path d="M13.2436 8.0346H10.4456V11.9585H9.69952V2.42907H12.8705C13.8032 2.42907 14.7358 2.61592 15.2954 3.17647C15.6684 3.73702 16.0415 4.48443 16.0415 5.23183C16.0415 5.79239 15.855 6.35294 15.4819 6.9135C15.1089 7.47405 14.5493 7.6609 13.9897 7.84775L16.4145 11.9585H15.4819L13.2436 8.0346ZM10.4456 7.2872H12.8705C13.6166 7.2872 14.1762 7.10035 14.5493 6.72664C14.9223 6.35294 15.1089 5.97924 15.1089 5.23183C15.1089 4.67128 14.9223 4.11073 14.5493 3.73702C14.1762 3.36332 13.6166 3.17647 12.684 3.17647H10.4456V7.2872ZM12.4975 1.30796L13.6166 0H14.3627L12.684 1.86851H12.1244L10.6322 0H11.3783L12.4975 1.30796Z" fill="white"/>
<path d="M23.5026 7.47403H19.0259V11.3979H24.0622V12.1453H18.0933V2.42905H24.0622V3.17645H19.0259V6.72663H23.5026V7.47403Z" fill="white"/>
<path d="M31.1503 9.71627C31.1503 9.15571 30.9637 8.78201 30.5907 8.40831C30.2176 8.03461 29.4715 7.84775 28.5389 7.47405C27.6062 7.2872 26.8601 6.9135 26.3005 6.5398C25.7409 6.16609 25.3679 5.41869 25.3679 4.67128C25.3679 3.92388 25.7409 3.36333 26.3005 2.98962C26.8601 2.61592 27.6062 2.24222 28.5389 2.24222C29.0984 2.24222 29.658 2.42907 30.2176 2.61592C30.7772 2.80277 31.1503 3.17647 31.3368 3.55018C31.5233 3.92388 31.7098 4.48443 31.7098 5.04499H30.9637C30.9637 4.48443 30.7772 3.92388 30.2176 3.55018C29.8446 3.17647 29.0984 2.98962 28.3523 2.98962C27.6062 2.98962 27.0466 3.17647 26.6736 3.55018C26.3005 3.92388 26.114 4.29758 26.114 4.85813C26.114 5.41869 26.3005 5.79239 26.6736 5.97924C27.0466 6.35294 27.6062 6.53979 28.5389 6.72665C29.4715 6.9135 30.0311 7.2872 30.4041 7.47405C30.7772 7.6609 31.1503 8.03461 31.3368 8.40831C31.5233 8.78201 31.7098 9.15571 31.7098 9.71627C31.7098 10.4637 31.3368 11.0242 30.7772 11.5848C30.2176 11.9585 29.4715 12.3322 28.3523 12.3322C27.6062 12.3322 27.0466 12.1453 26.487 11.9585C25.9275 11.7716 25.5544 11.3979 25.1813 11.0242C24.8083 10.6505 24.8083 10.09 24.8083 9.52941H25.5544C25.5544 10.2768 25.7409 10.6505 26.3005 11.0242C26.8601 11.3979 27.4197 11.5848 28.3523 11.5848C29.0984 11.5848 29.658 11.3979 30.2176 11.0242C30.7772 10.6505 31.1503 10.2768 31.1503 9.71627Z" fill="white"/>
</g>
<defs>
<clipPath id="clip0">
<rect width="72" height="54" fill="white"/>
</clipPath>
</defs>
</svg>
