<?xml version="1.0" encoding="utf-8"?>
<!-- Generator: Adobe Illustrator 24.0.2, SVG Export Plug-In . SVG Version: 6.00 Build 0)  -->
<svg version="1.1" id="Capa_1" xmlns="http://www.w3.org/2000/svg" xmlns:xlink="http://www.w3.org/1999/xlink" x="0px" y="0px"
	 viewBox="0 0 512 512" style="enable-background:new 0 0 512 512;" xml:space="preserve">
<style type="text/css">
	.st0{fill:#FFFFFF;}
</style>
<path class="st0" d="M108.4,395.6H59V205.2L0,223.5v-40.2l103.1-36.9h5.3V395.6z"/>
<path class="st0" d="M512,292.7c0,34.4-7.1,60.7-21.4,79C476.4,389.9,455.5,399,428,399c-27.1,0-47.9-8.9-62.2-26.8
	c-14.4-17.9-21.7-43.5-22-76.9v-45.8c0-34.8,7.2-61.1,21.6-79.1s35.2-27,62.3-27c27.1,0,47.9,8.9,62.2,26.7
	c14.4,17.8,21.7,43.4,22,76.8v45.8H512z M462.6,242.4c0-20.6-2.8-35.7-8.5-45.1c-5.6-9.4-14.4-14.1-26.4-14.1
	c-11.6,0-20.2,4.5-25.7,13.4c-5.5,9-8.5,23-8.8,42v60.6c0,20.3,2.8,35.4,8.3,45.3s14.4,14.8,26.6,14.8c12.1,0,20.8-4.7,26.1-14.2
	c5.4-9.5,8.1-23.9,8.4-43.5V242.4z"/>
<g>
	<path class="st0" d="M28.5,88.7l0.4,1.5l0.4-1.5l22-61.4h6.5L31.7,97.4H26l-26-70h6.4L28.5,88.7z"/>
	<path class="st0" d="M75.3,97.4h-5.9v-70h5.9V97.4z"/>
	<path class="st0" d="M133,77.7h-31.8L94,97.4h-6.2l26.5-70.1h5.6l26.5,70.1h-6.2L133,77.7z M103.1,72.7h28.1l-14-38.2L103.1,72.7z"
		/>
	<path class="st0" d="M205.8,75.6c-0.8,7.4-3.4,13-7.9,16.9s-10.4,5.9-17.9,5.9c-5.2,0-9.8-1.3-13.8-3.9c-4-2.6-7.1-6.3-9.3-11
		c-2.2-4.8-3.3-10.2-3.3-16.3V58c0-6.2,1.1-11.7,3.3-16.6c2.2-4.8,5.3-8.5,9.4-11.1c4.1-2.6,8.8-3.9,14.1-3.9c7.5,0,13.4,2,17.8,6.1
		c4.3,4,6.9,9.6,7.6,16.8h-6c-1.5-11.9-7.9-17.9-19.4-17.9c-6.4,0-11.4,2.4-15.2,7.1c-3.8,4.8-5.7,11.3-5.7,19.7v8.6
		c0,8.1,1.8,14.5,5.5,19.4c3.7,4.8,8.6,7.2,14.9,7.2c6.2,0,10.9-1.5,14-4.5s5.1-7.4,5.8-13.4h6.1V75.6z"/>
	<path class="st0" d="M282,77.7h-31.8L243,97.4h-6.2l26.5-70.1h5.6l26.5,70.1h-6.2L282,77.7z M252,72.7h28.1l-14-38.2L252,72.7z"/>
	<path class="st0" d="M321.5,62.6l-9.9,9.7v25.1h-5.9v-70h5.9v37.8l35.9-37.8h7.5l-29.3,31.2l31.6,38.9H350L321.5,62.6z"/>
	<path class="st0" d="M418.2,66.2c0,6.4-1.1,12.1-3.3,17c-2.2,4.9-5.4,8.6-9.6,11.3c-4.1,2.6-8.9,3.9-14.3,3.9
		c-8.2,0-14.8-2.9-19.8-8.8c-5-5.9-7.6-13.8-7.6-23.7v-7.2c0-6.4,1.1-12,3.4-17c2.3-4.9,5.5-8.7,9.6-11.4c4.1-2.6,8.9-4,14.3-4
		s10.1,1.3,14.3,3.9c4.1,2.6,7.3,6.3,9.6,11c2.2,4.7,3.4,10.2,3.5,16.5v8.5H418.2z M412.2,58.6c0-8.4-1.9-15-5.7-19.8
		c-3.8-4.8-9-7.2-15.7-7.2c-6.5,0-11.7,2.4-15.6,7.2c-3.9,4.8-5.8,11.5-5.8,20.1v7.3c0,8.3,1.9,14.9,5.8,19.8
		c3.8,4.9,9.1,7.3,15.7,7.3c6.7,0,11.9-2.4,15.7-7.2c3.8-4.8,5.6-11.5,5.6-20V58.6z"/>
</g>
<path class="st0" d="M152.8,272l14.5-127.7H308V186h-99.9l-6.2,54c11.8-6.3,24.4-9.5,37.8-9.5c23.9,0,42.7,7.4,56.2,22.3
	c13.6,14.8,20.4,35.6,20.4,62.3c0,16.2-3.4,30.7-10.3,43.6c-6.8,12.8-16.6,22.8-29.4,29.8c-12.8,7.1-27.8,10.6-45.2,10.6
	c-15.2,0-29.3-3.1-42.3-9.2c-13-6.2-23.3-14.8-30.8-26c-7.5-11.2-11.5-23.9-12-38.1h49.3c1,10.5,4.7,18.6,11,24.4
	c6.3,5.8,14.5,8.7,24.6,8.7c11.3,0,20-4.1,26-12.2c6.1-8.1,9.1-19.6,9.1-34.4c0-14.3-3.5-25.2-10.5-32.8c-7-7.6-17-11.4-29.8-11.4
	c-11.8,0-21.5,3.1-28.8,9.3l-4.8,4.5L152.8,272z"/>
</svg>
