<?xml version="1.0" encoding="utf-8"?>
<!-- Generator: Adobe Illustrator 23.0.2, SVG Export Plug-In . SVG Version: 6.00 Build 0)  -->
<svg version="1.1" id="Capa_1" xmlns="http://www.w3.org/2000/svg" xmlns:xlink="http://www.w3.org/1999/xlink" x="0px" y="0px"
	 viewBox="0 0 512 512" style="enable-background:new 0 0 512 512;" xml:space="preserve">
<style type="text/css">
	.st0{fill:#FFFFFF;}
</style>
<g>
	<path class="st0" d="M246.8,469.9H264c35.6,0,75.9,0,106.9-33.6c7.7-8.3,14.7-18.8,21-30.7c98.6-2.7,113.6-58,113.6-91.3
		c0-47.7-26.4-74.4-76.5-78v-0.4H81.8v12c0,61.6,21.7,149,58,188.4C170.8,469.9,211.2,469.9,246.8,469.9z M157.5,419.9
		c-30.2-32.8-48.9-106.6-51.4-160.1H288h116.6c-2.5,53.5-21.2,127.3-51.4,160.1c-22.2,24.1-49.8,25.9-89.3,25.9l-8.5,0l-8.5,0
		C207.3,445.8,179.7,444,157.5,419.9z M428.6,260.3c46.4,3.8,52.8,30.5,52.8,53.9c0,40.1-26.3,62.5-78.2,66.6
		C418,343.4,427,298.3,428.6,260.3z"/>
	<path class="st0" d="M492.7,458.2c-55.5,26.5-127.9,28.6-216.9,28.6l-20.4,0l-19.5,0c-74,0-157.9,0-217.8-28.6l-1.1-0.5L6.5,479.4
		l1.1,0.5c60,28.7,134.5,30.9,225.5,30.9l22.2,0l19.2,0c76.7,0,163.7,0,228.5-30.9l1.1-0.5l-10.4-21.7L492.7,458.2z"/>
	<path class="st0" d="M205.8,166.6l-14,14c-4.7,4.7-4.7,12.3,0,17c2.3,2.3,5.3,3.5,8.5,3.5c3.2,0,6.2-1.3,8.5-3.5l14-14
		c46.2-46.2,21.5-76.3,3.4-98.2c-15.7-19.1-23.6-28.6-3.4-48.8l14.9-14.9c2.3-2.3,3.5-5.3,3.5-8.5c0-3.2-1.3-6.2-3.5-8.5
		c-2.3-2.3-5.3-3.5-8.5-3.5c-3.2,0-6.2,1.3-8.5,3.5l-14.9,14.9c-35.7,35.7-14,62,1.9,81.2C225.1,121.9,236.6,135.9,205.8,166.6z"/>
	<path class="st0" d="M288.5,166.6l-14,14c-4.7,4.7-4.7,12.3,0,17c2.3,2.3,5.3,3.5,8.5,3.5c3.2,0,6.2-1.3,8.5-3.5l14-14
		c46.2-46.2,21.5-76.3,3.4-98.2c-15.7-19.1-23.6-28.6-3.4-48.8l14.9-14.9c2.3-2.3,3.5-5.3,3.5-8.5c0-3.2-1.3-6.2-3.5-8.5
		c-2.3-2.3-5.3-3.5-8.5-3.5c-3.2,0-6.2,1.3-8.5,3.5l-14.9,14.9c-35.7,35.7-14,62,1.8,81.2C307.8,121.9,319.3,135.9,288.5,166.6z"/>
</g>
</svg>
