<svg width="53" height="51" viewBox="0 0 53 51" fill="none" xmlns="http://www.w3.org/2000/svg">
<g clip-path="url(#clip0)">
<path d="M20.5699 35.828H7.04196V44.9677H22.979V50.6344H0V16.6344H22.979V22.3011H7.04196V30.3441H20.5699V35.828Z" fill="white"/>
<path d="M53 16.6344V38.9355C53 42.5914 51.8881 45.5161 49.479 47.7097C47.0699 49.9032 43.9196 51 39.8427 51C35.7657 51 32.6154 49.9032 30.3916 47.8925C28.1678 45.8817 26.8706 42.957 26.8706 39.3011V16.6344H33.9126V38.9355C33.9126 41.129 34.4685 42.7742 35.5804 43.6882C36.6923 44.6022 38.1748 45.1505 40.028 45.1505C43.9196 45.1505 45.958 43.1398 46.1434 38.9355V16.6344H53Z" fill="white"/>
<path d="M2.22378 4.20431L1.11189 5.48388V8.40861H0.370636V0.1828H1.11189V4.5699L5.37413 0.1828H6.30071L2.77973 3.83871L6.48602 8.40861H5.55945L2.22378 4.20431Z" fill="white"/>
<path d="M7.78323 8.40861V0.1828H10.1923C10.9336 0.1828 11.4895 0.365596 12.0455 0.731188C12.6014 1.09678 12.972 1.27957 13.1574 1.82796C13.3427 2.37635 13.528 3.10753 13.528 3.83871V4.5699C13.528 5.30108 13.3427 6.03226 13.1574 6.58065C12.972 7.12904 12.4161 7.49463 11.8602 7.86022C11.3042 8.22581 10.7483 8.40861 10.007 8.40861H7.78323ZM8.52449 0.731188V7.86022H10.1923C11.1189 7.86022 11.8602 7.49463 12.2308 6.94624C12.7867 6.39786 12.972 5.48388 12.972 4.5699V3.83871C12.972 2.92474 12.7867 2.19355 12.2308 1.64517C11.6748 0.913983 10.9336 0.731188 10.1923 0.731188H8.52449Z" fill="white"/>
<path d="M20.014 4.3871H16.1224V7.67742H20.5699V8.22581H15.3811V0.1828H20.5699V0.731187H16.1224V3.83871H20.014V4.3871Z" fill="white"/>
<path d="M24.0909 4.20431L22.7937 5.48388V8.40861H22.2378V0.1828H22.979V4.5699L27.2413 0.1828H28.1678L24.6469 3.83871L28.3531 8.40861H27.4266L24.0909 4.20431Z" fill="white"/>
<path d="M35.7657 4.75269C35.7657 5.48387 35.5804 6.21505 35.3951 6.76344C35.2098 7.31183 34.8392 7.86021 34.2832 8.04301C33.7273 8.22581 33.1713 8.5914 32.6154 8.5914C31.6888 8.5914 30.7622 8.22581 30.2063 7.49462C29.6504 6.76344 29.2797 5.84946 29.2797 4.75269V3.83871C29.2797 3.10753 29.465 2.37634 29.6504 1.82796C29.8357 1.27957 30.3916 0.731183 30.7622 0.548387C31.3182 0.182796 31.8741 0 32.4301 0C32.986 0 33.7273 0.182796 34.0979 0.548387C34.6538 0.913978 35.0245 1.27957 35.2098 1.82796C35.3951 2.37634 35.5804 3.10753 35.5804 3.83871V4.75269H35.7657ZM35.0245 3.83871C35.0245 2.92473 34.8392 2.01075 34.2832 1.46237C33.9126 0.913978 33.1713 0.548387 32.4301 0.548387C31.6888 0.548387 30.9476 0.913978 30.5769 1.46237C30.2063 2.01075 29.8357 2.74194 29.8357 3.83871V4.75269C29.8357 5.66667 30.021 6.58065 30.5769 7.12903C30.9476 7.67742 31.6888 8.04301 32.4301 8.04301C33.1713 8.04301 33.9126 7.67742 34.2832 7.12903C34.6538 6.58065 35.0245 5.84946 35.0245 4.75269V3.83871Z" fill="white"/>
<path d="M38.1749 7.67742H42.2518V8.22581H37.4336V0.1828H38.1749V7.67742Z" fill="white"/>
<path d="M44.4755 8.40861H43.7343V0.1828H44.4755V8.40861Z" fill="white"/>
<path d="M49.2937 7.31183L52.0734 0H52.8147L49.6643 8.22581H48.9231L45.7727 0H46.514L49.2937 7.31183Z" fill="white"/>
</g>
<defs>
<clipPath id="clip0">
<rect width="53" height="51" fill="white"/>
</clipPath>
</defs>
</svg>
