<?xml version="1.0" encoding="utf-8"?>
<!-- Generator: Adobe Illustrator 23.0.2, SVG Export Plug-In . SVG Version: 6.00 Build 0)  -->
<svg version="1.1" id="Capa_1" xmlns="http://www.w3.org/2000/svg" xmlns:xlink="http://www.w3.org/1999/xlink" x="0px" y="0px"
	 viewBox="0 50 512 512" style="enable-background:new 0 0 512 512;" xml:space="preserve">
<style type="text/css">
	.st0{enable-background:new    ;}
	.st1{fill:#FFFFFF;}
</style>
<g class="st0">
	<path class="st1" d="M150,338.1H51.4v66.8h115.8v41.3H0V196.8h166.8v41.6H51.4v59.4H150V338.1z"/>
	<path class="st1" d="M386,196.8V361c0,27.3-8.5,48.9-25.6,64.7c-17.1,15.9-40.4,23.8-69.9,23.8c-29.1,0-52.2-7.7-69.3-23.1
		c-17.1-15.4-25.9-36.6-26.2-63.5V196.8h51.4v164.6c0,16.3,3.9,28.2,11.7,35.7c7.8,7.5,18.6,11.2,32.4,11.2
		c28.9,0,43.5-15.2,44-45.5V196.8H386z"/>
</g>
<g class="st0">
	<path class="st1" d="M16.7,112.6l-9.9,9.7v25.1H0.9V77.4h5.9v37.8l35.9-37.8h7.5l-29.3,31.2l31.6,38.9h-7.2L16.7,112.6z"/>
	<path class="st1" d="M63.1,147.4V77.4h19.6c5.7,0,10.9,1.3,15.4,3.9c4.6,2.6,8.1,6.4,10.7,11.2c2.5,4.9,3.8,10.4,3.8,16.6v6.4
		c0,6.3-1.3,11.8-3.8,16.6c-2.5,4.8-6.1,8.6-10.7,11.2c-4.6,2.6-9.9,3.9-15.9,3.9H63.1z M69,82.4v60h13.3c7.4,0,13.3-2.4,17.8-7.3
		c4.5-4.9,6.7-11.5,6.7-19.9V109c0-8.1-2.2-14.5-6.6-19.4S90,82.4,82.8,82.4H69z"/>
	<path class="st1" d="M166.3,113.8h-32.8v28.6h37.7v5h-43.6V77.4H171v5h-37.4v26.5h32.8V113.8z"/>
	<path class="st1" d="M199.5,112.6l-9.9,9.7v25.1h-5.9V77.4h5.9v37.8l35.9-37.8h7.5l-29.3,31.2l31.6,38.9H228L199.5,112.6z"/>
	<path class="st1" d="M296.1,116.2c0,6.4-1.1,12.1-3.3,17c-2.2,4.9-5.4,8.6-9.6,11.3c-4.1,2.6-8.9,3.9-14.3,3.9
		c-8.2,0-14.8-2.9-19.8-8.8c-5-5.9-7.6-13.8-7.6-23.7v-7.2c0-6.4,1.1-12,3.4-17s5.5-8.7,9.6-11.4c4.1-2.6,8.9-4,14.3-4
		s10.1,1.3,14.3,3.9c4.1,2.6,7.3,6.3,9.6,11c2.2,4.7,3.4,10.2,3.5,16.5V116.2z M290.2,108.6c0-8.4-1.9-15-5.7-19.8
		c-3.8-4.8-9-7.2-15.7-7.2c-6.5,0-11.7,2.4-15.6,7.2c-3.9,4.8-5.8,11.5-5.8,20.1v7.3c0,8.3,1.9,14.9,5.8,19.8
		c3.9,4.9,9.1,7.3,15.7,7.3c6.7,0,11.9-2.4,15.7-7.2c3.8-4.8,5.6-11.5,5.6-20V108.6z"/>
	<path class="st1" d="M317,142.4h34.6v5H311V77.4h6V142.4z"/>
	<path class="st1" d="M370.2,147.4h-5.9V77.4h5.9V147.4z"/>
	<path class="st1" d="M410.3,138.7l0.4,1.5l0.4-1.5l22-61.4h6.5l-26.1,70.1h-5.7l-26.1-70.1h6.4L410.3,138.7z"/>
</g>
</svg>
