<?xml version="1.0" encoding="utf-8"?>
<!-- Generator: Adobe Illustrator 23.0.2, SVG Export Plug-In . SVG Version: 6.00 Build 0)  -->
<svg version="1.1" id="Capa_1" xmlns="http://www.w3.org/2000/svg" xmlns:xlink="http://www.w3.org/1999/xlink" x="0px" y="0px"
	 viewBox="0 50 512 512" style="enable-background:new 0 0 512 512;" xml:space="preserve">
<style type="text/css">
	.st0{enable-background:new    ;}
	.st1{fill:#FFFFFF;}
</style>
<g class="st0">
	<path class="st1" d="M150,338.1H51.4v66.8h115.8v41.3H0V196.8h166.8v41.6H51.4v59.4H150V338.1z"/>
	<path class="st1" d="M386,196.8V361c0,27.3-8.5,48.9-25.6,64.7c-17.1,15.9-40.4,23.8-69.9,23.8c-29.1,0-52.2-7.7-69.3-23.1
		c-17.1-15.4-25.9-36.6-26.2-63.5V196.8h51.4v164.6c0,16.3,3.9,28.2,11.7,35.7c7.8,7.5,18.6,11.2,32.4,11.2
		c28.9,0,43.5-15.2,44-45.5V196.8H386z"/>
</g>
<g class="st0">
	<path class="st1" d="M15.5,111.6l-9.7,9.5v24.6H0V77h5.8v37.1L41,77h7.3l-28.8,30.6l31,38.1h-7.1L15.5,111.6z"/>
	<path class="st1" d="M61,145.7V77h19.2c5.6,0,10.7,1.3,15.2,3.8c4.5,2.6,8,6.2,10.5,11c2.5,4.8,3.8,10.2,3.8,16.3v6.3
		c0,6.1-1.2,11.6-3.7,16.3c-2.5,4.8-6,8.4-10.5,11c-4.5,2.6-9.7,3.9-15.6,3.9H61z M66.8,81.9v58.9h13c7.2,0,13-2.4,17.4-7.2
		c4.4-4.8,6.6-11.3,6.6-19.5v-6c0-7.9-2.2-14.2-6.5-19c-4.3-4.8-10-7.1-17-7.2H66.8z"/>
	<path class="st1" d="M162.2,112.8h-32.1v28h37v4.9h-42.8V77h42.5v4.9h-36.7v26h32.1V112.8z"/>
	<path class="st1" d="M194.7,111.6l-9.7,9.5v24.6h-5.8V77h5.8v37.1L220.3,77h7.3l-28.8,30.6l31,38.1h-7.1L194.7,111.6z"/>
	<path class="st1" d="M289.6,115.1c0,6.3-1.1,11.9-3.3,16.7c-2.2,4.8-5.3,8.5-9.4,11c-4.1,2.6-8.7,3.9-14.1,3.9
		c-8,0-14.5-2.9-19.4-8.6c-4.9-5.7-7.4-13.5-7.4-23.2v-7.1c0-6.3,1.1-11.8,3.3-16.6c2.2-4.8,5.4-8.5,9.4-11.1
		c4.1-2.6,8.7-3.9,14-3.9c5.3,0,10,1.3,14,3.8c4,2.5,7.2,6.2,9.4,10.8c2.2,4.7,3.4,10.1,3.4,16.2V115.1z M283.8,107.6
		c0-8.3-1.9-14.8-5.6-19.4c-3.7-4.7-8.9-7-15.4-7c-6.4,0-11.5,2.4-15.3,7.1c-3.8,4.7-5.7,11.3-5.7,19.7v7.2c0,8.1,1.9,14.6,5.7,19.4
		c3.8,4.8,8.9,7.2,15.4,7.2c6.6,0,11.7-2.4,15.4-7.1c3.7-4.7,5.5-11.3,5.5-19.7V107.6z"/>
	<path class="st1" d="M310,140.8H344v4.9h-39.8V77h5.9V140.8z M324.8,93.9l-3.4-2.5c2.2-3.1,3.3-6.4,3.4-9.9V77h5.4v3
		C330.3,86,328.5,90.6,324.8,93.9z"/>
	<path class="st1" d="M367.6,137.2l0.4,1.5l0.4-1.5L390,77h6.4l-25.6,68.7h-5.6L339.6,77h6.3L367.6,137.2z"/>
	<path class="st1" d="M444.4,112.8h-32.1v28h37v4.9h-42.8V77H449v4.9h-36.7v26h32.1V112.8z"/>
	<path class="st1" d="M476.9,111.6l-9.7,9.5v24.6h-5.8V77h5.8v37.1L502.5,77h7.3L481,107.6l31,38.1h-7.1L476.9,111.6z"/>
</g>
</svg>
