<?xml version="1.0" encoding="utf-8"?>
<!-- Generator: Adobe Illustrator 23.0.2, SVG Export Plug-In . SVG Version: 6.00 Build 0)  -->
<svg version="1.1" id="Capa_1" xmlns="http://www.w3.org/2000/svg" xmlns:xlink="http://www.w3.org/1999/xlink" x="0px" y="0px"
	 viewBox="0 0 512 512" style="enable-background:new 0 0 512 512;" xml:space="preserve">
<style type="text/css">
	.st0{fill:#FFFFFF;}
</style>
<path class="st0" d="M510.1,451.1c-1.9-4.1-4.3-8-6.5-11.8c-0.9-1.5-1.8-3-2.6-4.5c-15.6-27-31.1-53.9-46.7-80.9l-79.9-138.3
	C348,170,321.7,124.4,295.3,78.8c-1.8-3.2-3.7-6.3-5.4-9.4c-6.3-10.9-12.8-22.2-19.4-33.3c-2.3-3.9-6.5-6.5-11.5-7.3
	s-10.1,0.4-13.6,3.3c-2.2,1.8-4,4.5-5.5,7C235,47.5,230,56,225.3,64.4c-2.3,4.1-4.7,8.1-7,12.2c-20.4,35.3-40.9,70.7-61.2,106
	c-20.4,35.3-40.9,70.7-61.2,106c-7.8,13.5-15.7,27.1-23.4,40.6C50,368,26.9,407.9,4,447.3c-2.6,4.6-3.8,9.7-3.3,15.3
	c0.6,6.9,6.6,12.7,13.5,13c2.1,0.1,4.3,0.1,6.4,0c0.9,0,1.9,0,2.8,0h262.1c49.4,0,98.9,0,148.3,0c6.8,0,13.5,0,20.3,0
	c6.7,0,13.5,0,20.3,0s13.6,0,20.4,0c3.3,0,5.9-0.5,7.9-1.4c3.6-1.5,6.3-4.4,7.7-8.1C512.6,461.6,512.3,456,510.1,451.1z M479.7,450
	c-0.1,0.1-0.5,0.4-3.1,0.4H36.3h-0.7c-0.4,0-0.9,0-1.3,0c-1.7-0.1-1.9-0.4-1.9-0.4s-0.2-0.4,0.7-1.9c2.8-5,5.7-10,8.5-14.9l1.8-3.2
	c34.8-60.1,174.7-302.5,210.4-364.2c1.5-2.6,2-2.8,2.1-2.8s0.6,0.2,2,2.7c21.7,37.5,200.9,347.7,220.5,381.5
	C479.8,449.3,479.7,449.9,479.7,450z"/>
<path class="st0" d="M345.7,440.6c-25.6,0-51.3,0-76.9,0c-1.3,0-2.8,0.3-4-0.1c-2.1-0.9-4.7-1.8-6-3.6c-1.6-2.1,0-4.5,1.5-6.3
	c10.1-11.9,20-23.8,30.2-35.6c1.8-2.1,4.8-3.8,7.5-4.6c6.8-1.9,12.2-5.7,16.6-11.3c5.6-7,11.5-13.7,17.3-20.6
	c12.8-15.3,32-15.2,44.3,0.5c18.3,23.5,36.4,47.2,54.5,70.8c1.6,2,3.6,4.3,2,7.2c-1.6,3.1-4.5,3.5-7.5,3.5
	C398.8,440.6,372.2,440.6,345.7,440.6L345.7,440.6z"/>
<path class="st0" d="M240.2,290.8c-0.7,1.1-1.4,2.1-1.9,3.4c-5.1,9.6-10.3,19.1-15.3,28.8c-1.3,2.5-2.6,3.1-5.2,1.6
	c-8.6-4.7-17.4-9.3-26.1-13.8c-4-2.1-4-2.2-1.8-6.4c8.4-15.9,16.9-31.8,25.3-47.7c0.4-0.8,0.8-1.5,1.2-2.4c0.9-2,0.4-3.2-2-3.2
	c-5.4,0.1-10.8-0.2-16.2,0.1c-1.3,0.1-3.2,1.3-3.9,2.5c-3.5,6.1-6.6,12.4-10,18.6c-1.3,2.4-1.1,4.4,1.2,6.1c2.5,1.9,5.1,4.1,7.5,6.2
	c2.1,1.8,1,7.5-1.6,8.3c-0.7,0.2-1.8-0.4-2.6-1c-2.5-1.9-5.1-4.1-7.5-6.1c-1.8-1.5-3.5-1.4-4.6,0.9c-0.8,1.7-1.8,3.4-2.6,5.1
	c-1.1,2.1-2.4,2.1-4.3,0.8c-6-4.6-9.3-13.6-6-20.6c5.6-11.7,11.8-23.1,18.2-34.4c2.4-4.4,7.2-5.9,12.2-5.9c15.4-0.1,30.7-0.3,46.1,0
	c14.1,0.3,23.6,10.7,22.8,24.8c-1.5,25.6-3.3,51.2-5.1,76.8c-0.2,3.2,0.5,5.3,3,7.3c14.8,12.1,29.5,24.4,44.2,36.7
	c1.3,1.1,4.5,1.9,2,4.9c-2.6,3.1-5,3.4-7.7,1.1c-12.7-10.5-25.4-21-38.2-31.4c-0.9-0.8-2.2-1.2-3.4-1.7c-0.4,1.2-1,2.4-1.2,3.7
	c-0.6,3.9-1.3,4.4-5.1,3.1c-8-3-13.1-10.3-12.8-18.9c0.1-3.5-0.9-5.8-3.7-7.7c-2.1-1.5-4.2-3.4-6.2-5.2c-2.1-1.9-1.9-4.6,0.7-7.6
	c2-2.2,3.1,0.2,4.5,0.9c1.6,0.8,3.2,1.7,4.8,2.6c0.4-1.8,1-3.6,1.2-5.4c0.5-6.8,0.9-13.6,1.3-20.4c0.1-1.3,0-2.7,0-4.2
	C241.1,290.9,240.6,290.9,240.2,290.8"/>
<path class="st0" d="M242.6,404.2c0.4,10.8,0.7,21.5,1.1,32.3c0.1,3.6-0.8,4.3-4.5,3.7c-9.7-1.7-17.4-10.7-17.9-20.9
	c-0.6-14-1-28-1.7-42c-0.2-2.8-1.2-5.9-2.7-8.3c-5.4-8.9-11.2-17.5-16.9-26.2c-3.1-4.8-3.7-4.8-6.2,0.2
	c-16.3,30.6-32.5,61.3-48.7,92c-3.1,5.8-3.9,5.9-8.3,1.1c-6.5-7-7.7-16.3-3.1-25.1c9.8-18.5,19.5-37,29.4-55.6
	c6.5-12.4,13.1-24.7,19.6-37.1c2-4,2.2-4.1,6.1-2c9.1,4.8,18,9.5,27,14.3c1.7,0.9,3.4,2.3,4.4,4c6.5,9.8,13,19.6,19.1,29.6
	c1.4,2.2,2,5.2,2.1,7.9C241.9,382.7,242.2,393.5,242.6,404.2L242.6,404.2"/>
<path class="st0" d="M300.1,220.6c-0.3,11.6-9.7,20.9-20.9,20.6c-10.8-0.3-20.3-10.2-20-20.9c0.3-10.6,10.1-20.2,20.4-20
	C290.7,200.5,300.4,210.2,300.1,220.6"/>
</svg>
