<?xml version="1.0" encoding="utf-8"?>
<!-- Generator: Adobe Illustrator 23.0.2, SVG Export Plug-In . SVG Version: 6.00 Build 0)  -->
<svg version="1.1" id="Capa_1" xmlns="http://www.w3.org/2000/svg" xmlns:xlink="http://www.w3.org/1999/xlink" x="0px" y="0px"
	 viewBox="0 30 512 512" style="enable-background:new 0 0 512 512;" xml:space="preserve">
<style type="text/css">
	.st0{enable-background:new    ;}
	.st1{fill:#FFFFFF;}
</style>
<g class="st0">
	<path class="st1" d="M108.6,445.5H59.2V255.2L0.3,273.5v-40.1l103-36.9h5.3V445.5z"/>
</g>
<g class="st0">
	<path class="st1" d="M314.4,445.5H143.9v-33.8l80.5-85.8c11-12.1,19.2-22.6,24.5-31.6c5.3-9,7.9-17.5,7.9-25.6
		c0-11-2.8-19.7-8.4-26.1c-5.6-6.3-13.6-9.5-23.9-9.5c-11.2,0-20,3.8-26.4,11.5c-6.4,7.7-9.7,17.8-9.7,30.3h-49.5
		c0-15.1,3.6-29,10.8-41.5c7.2-12.5,17.5-22.3,30.7-29.5c13.2-7.1,28.2-10.7,44.9-10.7c25.6,0,45.5,6.1,59.7,18.4
		c14.2,12.3,21.3,29.7,21.3,52.1c0,12.3-3.2,24.8-9.6,37.6c-6.4,12.8-17.3,27.6-32.8,44.6l-56.5,59.6h106.9V445.5z"/>
	<path class="st1" d="M512,342.7c0,34.4-7.1,60.7-21.4,78.9c-14.2,18.2-35.1,27.3-62.5,27.3c-27.1,0-47.8-8.9-62.2-26.8
		c-14.3-17.9-21.7-43.5-22-76.9v-45.8c0-34.7,7.2-61.1,21.6-79.1c14.4-18,35.2-27,62.3-27c27.1,0,47.8,8.9,62.2,26.7
		c14.3,17.8,21.7,43.4,22,76.8V342.7z M462.6,292.3c0-20.6-2.8-35.7-8.5-45.1c-5.6-9.4-14.4-14.1-26.4-14.1
		c-11.6,0-20.2,4.5-25.7,13.4c-5.5,8.9-8.5,22.9-8.8,42v60.5c0,20.3,2.8,35.4,8.3,45.2c5.5,9.9,14.4,14.8,26.6,14.8
		c12.1,0,20.8-4.7,26.1-14.2c5.4-9.5,8.1-23.9,8.4-43.4V292.3z"/>
</g>
<g class="st0">
	<path class="st1" d="M45.5,128.2H13.7l-7.2,19.7H0.3l26.5-70.1h5.6l26.5,70.1h-6.2L45.5,128.2z M15.5,123.2h28.1L29.6,85
		L15.5,123.2z"/>
	<path class="st1" d="M71.9,142.9h43.3v5H64.7v-4.5l41.6-60.6H65.9v-5h47.6V82L71.9,142.9z M89.8,68.8l8.3-9.3h5.1V60L91.8,72.6
		h-4.1L76.3,60v-0.5h5.1L89.8,68.8z"/>
</g>
</svg>
