<?xml version="1.0" encoding="utf-8"?>
<!-- Generator: Adobe Illustrator 23.0.2, SVG Export Plug-In . SVG Version: 6.00 Build 0)  -->
<svg version="1.1" id="Capa_1" xmlns="http://www.w3.org/2000/svg" xmlns:xlink="http://www.w3.org/1999/xlink" x="0px" y="0px"
	 viewBox="0 40 512 512" style="enable-background:new 0 0 512 512;" xml:space="preserve">
<style type="text/css">
	.st0{enable-background:new    ;}
	.st1{fill:#FFFFFF;}
</style>
<g class="st0">
	<path class="st1" d="M108.4,445.6H59V255.2L0,273.5v-40.2l103.1-36.9h5.3V445.6z"/>
</g>
<g class="st0">
	<path class="st1" d="M277.7,194.2v40.7h-4.8c-22.3,0.3-40.3,6.2-53.9,17.4c-13.6,11.3-21.8,26.9-24.5,47
		c13.2-13.4,29.9-20.2,50.1-20.2c21.6,0,38.9,7.8,51.6,23.2c12.8,15.5,19.1,35.9,19.1,61.2c0,16.2-3.5,30.8-10.5,43.9
		c-7,13.1-16.9,23.3-29.7,30.6c-12.8,7.3-27.3,10.9-43.5,10.9c-26.2,0-47.4-9.1-63.5-27.3c-16.1-18.2-24.2-42.6-24.2-73V331
		c0-27,5.1-50.8,15.3-71.5c10.2-20.7,24.8-36.7,43.9-48c19.1-11.3,41.2-17.1,66.4-17.2H277.7z M229.5,319c-8,0-15.2,2.1-21.7,6.2
		c-6.5,4.1-11.3,9.6-14.4,16.5v15c0,16.5,3.2,29.4,9.7,38.6c6.5,9.3,15.6,13.9,27.3,13.9c10.6,0,19.2-4.2,25.7-12.5
		c6.6-8.4,9.8-19.2,9.8-32.5c0-13.5-3.3-24.5-9.9-32.8C249.5,323.1,240.6,319,229.5,319z"/>
	<path class="st1" d="M506.7,262.9c0,12.1-3,22.8-9.1,32.1c-6,9.3-14.4,16.8-25,22.4c12.1,5.8,21.6,13.8,28.7,24
		c7.1,10.2,10.6,22.2,10.6,36c0,22.1-7.5,39.6-22.6,52.4c-15,12.8-35.5,19.2-61.4,19.2c-25.9,0-46.4-6.4-61.5-19.3
		c-15.2-12.9-22.7-30.3-22.7-52.3c0-13.8,3.5-25.8,10.6-36.1c7.1-10.3,16.6-18.2,28.5-23.9c-10.6-5.6-18.9-13-24.9-22.4
		c-6-9.3-9-20.1-9-32.1c0-21.2,7.1-38.1,21.2-50.7c14.1-12.6,33.3-18.9,57.6-18.9c24.2,0,43.3,6.2,57.5,18.7
		C499.6,224.6,506.7,241.5,506.7,262.9z M462.4,373.9c0-10.8-3.1-19.5-9.4-26c-6.3-6.5-14.7-9.7-25.3-9.7c-10.5,0-18.9,3.2-25.1,9.7
		c-6.3,6.4-9.4,15.1-9.4,26.1c0,10.6,3.1,19.1,9.2,25.6c6.2,6.5,14.7,9.7,25.6,9.7c10.7,0,19.1-3.1,25.2-9.4
		C459.4,393.6,462.4,384.9,462.4,373.9z M457.3,265.3c0-9.7-2.6-17.5-7.7-23.3c-5.1-5.9-12.4-8.8-21.7-8.8c-9.2,0-16.4,2.8-21.5,8.5
		c-5.1,5.7-7.7,13.6-7.7,23.6c0,9.9,2.6,17.9,7.7,23.9c5.1,6,12.4,9.1,21.7,9.1c9.3,0,16.5-3,21.6-9.1
		C454.8,283.2,457.3,275.2,457.3,265.3z"/>
</g>
<g class="st0">
	<path class="st1" d="M45.5,128.2H13.7l-7.2,19.7H0.3l26.5-70.1h5.6l26.5,70.1h-6.2L45.5,128.2z M15.5,123.2h28.1L29.6,85
		L15.5,123.2z"/>
	<path class="st1" d="M71.9,142.9h43.3v5H64.7v-4.5l41.6-60.6H65.9v-5h47.6V82L71.9,142.9z M89.8,68.8l8.3-9.3h5.1V60L91.8,72.6
		h-4.1L76.3,60v-0.5h5.1L89.8,68.8z"/>
</g>
</svg>
