<?xml version="1.0" encoding="utf-8"?>
<!-- Generator: Adobe Illustrator 16.0.0, SVG Export Plug-In . SVG Version: 6.00 Build 0)  -->
<!DOCTYPE svg PUBLIC "-//W3C//DTD SVG 1.1//EN" "http://www.w3.org/Graphics/SVG/1.1/DTD/svg11.dtd">
<svg version="1.1"
	 id="svg3045" inkscape:version="0.91 r" sodipodi:docname="logo-cs.svg" xmlns:rdf="http://www.w3.org/1999/02/22-rdf-syntax-ns#" xmlns:cc="http://creativecommons.org/ns#" xmlns:svg="http://www.w3.org/2000/svg" xmlns:dc="http://purl.org/dc/elements/1.1/" xmlns:inkscape="http://www.inkscape.org/namespaces/inkscape" xmlns:sodipodi="http://sodipodi.sourceforge.net/DTD/sodipodi-0.dtd"
	 xmlns="http://www.w3.org/2000/svg" xmlns:xlink="http://www.w3.org/1999/xlink" x="0px" y="0px" width="485.354px"
	 height="82.031px" viewBox="-260.354 -41.031 485.354 82.031" enable-background="new -260.354 -41.031 485.354 82.031"
	 xml:space="preserve">
<sodipodi:namedview  id="base" inkscape:window-x="0" fit-margin-right="0" inkscape:pageshadow="2" inkscape:pageopacity="0.0" fit-margin-bottom="0" inkscape:document-units="px" inkscape:window-maximized="1" inkscape:current-layer="layer1" inkscape:window-width="1600" inkscape:window-height="829" inkscape:window-y="21" bordercolor="#666666" inkscape:cx="158.65377" pagecolor="#ffffff" inkscape:zoom="3.959798" borderopacity="1.0" fit-margin-top="0" showgrid="false" inkscape:cy="-25.241534" fit-margin-left="0">
	</sodipodi:namedview>
<g>
	<path fill="#098c65" d="M-260.196,17.851c2.697,1.648,6.966,3.293,12.207,3.293c7.493,0,14.008-3.219,14.008-10.783
		c0-12.281-16.702-9.886-16.702-16.328c0-2.769,2.47-3.742,5.615-3.742c3.67,0,6.741,0.973,9.515,2.17v-6.664
		c-2.698-1.048-6.069-1.723-9.813-1.723c-8.166,0-12.958,4.418-12.958,10.408c0,11.76,16.628,9.436,16.628,16.027
		c0,3.146-2.921,4.418-6.667,4.418c-3.747,0-6.965-1.272-9.438-2.844L-260.196,17.851"/>
	<path fill="#098c65" d="M-226.697,12.906c0,5.17,2.696,8.015,8.163,8.015c1.873,0,4.191-0.375,6.065-1.197l-1.571-6.068
		c-0.676,0.223-1.725,0.447-2.247,0.447c-1.724,0-2.621-0.746-2.621-3.369v-43.361h-7.789V12.906"/>
	<path fill="#098c65" d="M-190.933,21.145c4.193,0,8.613-1.047,12.057-3.293l-2.321-5.32c-2.545,1.424-5.39,2.397-8.911,2.397
		c-6.445,0-10.411-4.268-10.563-10.334h22.768V2.722c0-11.457-5.541-18.648-15.204-18.648c-9.585,0-15.501,7.789-15.501,18.502
		C-208.609,12.382-203.292,21.145-190.933,21.145 M-200.743-0.946c0.072-4.796,2.846-8.914,7.563-8.914
		c5.016,0,7.189,4.42,7.338,8.914H-200.743"/>
	<path fill="#098c65" d="M-152.854,21.145c4.417,0,9.288-0.899,12.432-2.547v-51.224h-7.791v17.224
		c-1.571-0.375-3.594-0.523-5.164-0.523c-10.936,0-19.099,7.712-19.099,18.947C-172.477,14.854-163.94,21.145-152.854,21.145
		 M-152.854,14.63c-6.966,0-11.608-4.421-11.608-11.758c0-7.788,5.016-12.282,11.531-12.282c2.022,0,3.223,0.225,4.718,0.598v22.69
		C-149.487,14.406-151.432,14.63-152.854,14.63"/>
	<path fill="#098c65" d="M-115.681,21.145c10.334,0,17.227-8.012,17.227-18.569c0-10.564-6.893-18.502-17.227-18.502
		c-10.41,0-17.303,7.938-17.303,18.502C-132.984,13.132-126.02,21.145-115.681,21.145 M-115.681,14.78
		c-5.916,0-9.29-5.092-9.29-12.205c0-7.042,3.374-12.136,9.29-12.136c5.917,0,9.211,5.095,9.211,12.136
		C-106.47,9.688-109.764,14.78-115.681,14.78"/>
	<polyline fill="#098c65" points="-81.575,20.618 -75.581,20.618 -61.429,-15.025 -69.368,-15.025 -78.432,10.51 -78.58,10.51
		-87.865,-15.025 -95.808,-15.025 -81.575,20.618 	"/>
	<path fill="#098c65" d="M-35.168,20.397h6.667c-0.526-1.874-0.674-4.944-0.674-10.036v-13.63c0-8.614-4.944-12.657-13.706-12.657
		c-4.643,0-9.136,1.125-13.333,3.522l2.697,5.169c2.473-1.424,5.691-2.624,9.437-2.624c4.197,0,7.115,1.948,7.115,6.59v1.5
		l-6.367,0.225c-3.592,0.148-6.586,0.598-9.06,1.872c-3.597,1.797-5.917,4.864-5.917,9.583c0,6.814,4.868,11.234,11.531,11.234
		c4.422,0,7.718-1.872,10.338-4.346L-35.168,20.397 M-36.964,3.548v8.012c-1.423,1.269-4.121,3.368-7.713,3.368
		c-3.521,0-5.769-2.099-5.769-5.464c0-2.025,0.826-3.598,2.473-4.497c1.347-0.746,3.147-1.123,5.691-1.195L-36.964,3.548"/>
	<path fill="#098c65" d="M-20.377,20.397h7.787V-4.839c2.85-2.396,6.071-4.27,9.365-4.27c4.718,0,5.767,3.742,5.767,8.388v21.118
		h7.787v-23.59c0-9.738-5.465-12.734-11.081-12.734c-4.42,0-8.464,2.023-12.135,5.092l-0.899-4.191h-6.589V20.397"/>
	<path fill="#098c65" d="M19.567,20.397h7.791v-35.422h-7.791V20.397 M23.461-21.545c2.771,0,4.868-2.093,4.868-4.79
		c0-2.773-2.024-4.795-4.868-4.795s-4.866,2.098-4.866,4.795S20.617-21.545,23.461-21.545"/>
	<path fill="#098c65" d="M52.625,21.145c4.192,0,8.612-1.047,12.059-3.293l-2.326-5.32c-2.545,1.424-5.391,2.397-8.908,2.397
		c-6.444,0-10.415-4.268-10.561-10.334h22.768V2.722c0-11.457-5.542-18.648-15.204-18.648c-9.587,0-15.505,7.789-15.505,18.502
		C34.948,12.382,40.266,21.145,52.625,21.145 M42.815-0.946c0.074-4.796,2.845-8.914,7.563-8.914c5.019,0,7.187,4.42,7.34,8.914
		H42.815"/>
	<path fill="#098c65" d="M176.644-21.776L164.953,7.33h-0.225l-11.688-29.106h-24.635v-15.061h-17.299v15.061h-10.194v11.893h10.194
		v23.365c0,8.814,6.876,14.244,17.761,14.244c5.499,0,13.057-1.226,17.297-3.791l-4.811-10.453
		c-2.061,1.123-5.043,2.049-7.903,2.049c-3.44,0-5.045-1.537-5.045-6.153V-9.883h12.918l17.331,36.892h12.374l22.916-48.785H176.644
		z M176.644-21.776"/>
	<path fill="#098c65" d="M92.786,35.371c-1.931,0-3.502-1.571-3.502-3.503v-63.743c0-1.932,1.571-3.503,3.502-3.503H202.33
		c1.358,0.413,2.361,1.662,2.361,3.15V32.22c0,1.491-1.003,2.739-2.361,3.151H92.786z M215.853-40.903H92.786
		c-4.981,0-9.029,4.049-9.029,9.028v63.743c0,4.977,4.048,9.026,9.029,9.026h123.067c4.979,0,9.031-4.05,9.031-9.026v-63.743
		C224.884-36.853,220.832-40.903,215.853-40.903"/>
</g>
</svg>
