<?xml version="1.0" encoding="utf-8"?>
<!-- Generator: Adobe Illustrator 21.0.0, SVG Export Plug-In . SVG Version: 6.00 Build 0)  -->
<svg version="1.1" id="Vrstva_1" xmlns="http://www.w3.org/2000/svg" xmlns:xlink="http://www.w3.org/1999/xlink" x="0px" y="0px"
	 width="512px" height="256px" viewBox="0 0 4048 768" style="enable-background:new 0 0 4084 724;" xml:space="preserve">
<style type="text/css">
	.st0{fill:#B2B2B2;}
	.st1{fill:#B2B2B2;}
</style>
<g>
	<path class="st0" d="M3211.5,696V46H3088v192c-34.5-33.5-81.5-52-139.5-52c-141.5,0-249,115-249,259c0,144.5,107.5,261.5,249,261.5
		c58,0,105-20,139.5-53.5v43H3211.5L3211.5,696z M2962,587.5c-76,0-137.5-63.5-137.5-142.5c0-77.5,61.5-142,137.5-142
		c50.5,0,98.5,25,122.5,66.5c1.5,3,3.5,7,3.5,12v127c0,2.5-1.5,7-2.5,8.5C3062,560,3014,587.5,2962,587.5L2962,587.5L2962,587.5z
		 M2643.5,696V196H2520v500H2643.5L2643.5,696z M2582,158c39.5,0,71.5-32.5,71.5-72c0-40-32-72-71.5-72s-71.5,32-71.5,72
		C2510.5,125.5,2542.5,158,2582,158L2582,158L2582,158z M2202.5,706C2347,706,2464,589.5,2464,445c0-144-117-259-261.5-259
		c-144,0-261,115-261,259C1941.5,589.5,2058.5,706,2202.5,706L2202.5,706L2202.5,706z M2202.5,581.5c-75,0-136-61-136-136.5
		c0-75,61-136,136-136c76,0,136.5,61,136.5,136C2339,520.5,2278.5,581.5,2202.5,581.5L2202.5,581.5L2202.5,581.5z M1812,696V429
		c0-79,41.5-121,120.5-121V186c-159,0-244,84.5-244,243v267H1812L1812,696z M1623,696V46h-123.5v192
		c-34.5-33.5-81.5-53.5-139.5-53.5c-141.5,0-249,116.5-249,260.5c0,144.5,107.5,261,249,261c58,0,105-19.5,139.5-53v43H1623
		L1623,696z M1373.5,587.5c-76,0-137.5-63.5-137.5-142.5c0-77.5,61.5-142,137.5-142c50.5,0,98.5,25,122.5,66.5c1.5,3,3.5,7,3.5,12
		V508c0,2.5-1.5,7.5-2.5,9C1473.5,560,1425.5,587.5,1373.5,587.5L1373.5,587.5L1373.5,587.5z M1059.5,696V425.5
		C1059.5,292.5,956,186,824,186c-132.5,0-235.5,106.5-235.5,239.5V696H712V425.5C712,360,758,310,824,310c65.5,0,112,50,112,115.5
		V696H1059.5L1059.5,696z M523,696V196H399.5v42C365,204.5,318,186,260,186C118.5,186,11,301,11,445c0,144.5,107.5,261,249,261
		c58,0,105-19.5,139.5-53v43H523L523,696z M273.5,587.5C197.5,587.5,136,524,136,445c0-77.5,61.5-142,137.5-142
		c50.5,0,101,23.5,122.5,66.5c1.5,3,3.5,7,3.5,12v126c0,2.5-1.5,8-2.5,9.5C373.5,560,325.5,587.5,273.5,587.5L273.5,587.5
		L273.5,587.5z"/>
	<path class="st1" d="M3536,702l0.5-89h-11c-72.5,0-123.5-43.5-123.5-117V278.5h130.5V196H3402V60.5h-90.5V496
		c0,129.5,84,206,214,206H3536L3536,702z M3862.5,696l203-500.5h-102l-166,434h34.5L3665.5,196h-105l203,500H3862.5L3862.5,696z"/>
</g>
</svg>
