<svg version="1.1" xmlns="http://www.w3.org/2000/svg" xmlns:xlink="http://www.w3.org/1999/xlink" x="0px" y="0px"
	 width="512px" height="512px" viewBox="0 0 512 512" xml:space="preserve">
<g fill="#B2B2B2">
	<path d="M377,203.929c-12.035,0-22,9.791-22,21.826v85.992c0,12.035,9.965,21.826,22,21.826s22-9.791,22-21.826v-85.992
		C399,213.72,389.035,203.929,377,203.929z"/>
	<path d="M135.5,203.929c-12.035,0-21.5,9.791-21.5,21.826v85.992c0,12.034,9.465,21.826,21.5,21.826
		c12.034,0,21.5-9.792,21.5-21.826v-85.992C157,213.72,147.534,203.929,135.5,203.929z"/>
	<path d="M164,342.098C164,354.39,174.254,364,186.545,364H195h2.727H200v45.879c0,12.034,9.965,21.825,22,21.825
		s22-9.791,22-21.825V364h2.126h2.728h14.997h2.727H269v45.879c0,12.034,9.466,21.825,21.5,21.825c12.035,0,21.5-9.791,21.5-21.825
		V364h2.978h2.727h8.451c12.292,0,22.845-9.61,22.845-21.902V207H164V342.098z"/>
	<path d="M302.516,127.991l14.57-26.285c0.534-0.963,0.66-2.077,0.357-3.135s-1.001-1.935-1.963-2.469
		c-0.621-0.344-1.292-0.518-1.992-0.518c-1.502,0-2.885,0.814-3.611,2.125l-14.801,26.702c-11.773-5.05-24.892-7.876-38.727-7.876
		c-13.832,0-26.951,2.827-38.723,7.878l-14.803-26.704c-0.727-1.31-2.11-2.125-3.609-2.125c-0.703,0-1.373,0.174-1.993,0.518
		c-0.964,0.534-1.661,1.411-1.964,2.469c-0.304,1.058-0.178,2.171,0.356,3.134l14.572,26.289
		c-27.442,14.729-45.897,42.316-45.897,73.719c0,0.364,0.01,0.286,0.015,1.286h184.093c0.006-1,0.015-0.942,0.015-1.306
		C348.411,170.292,329.958,142.714,302.516,127.991z M213.859,166.498c-3.583,0-6.499-2.917-6.499-6.501
		c0-3.584,2.916-6.5,6.499-6.5c3.586,0,6.502,2.916,6.502,6.5C220.361,163.582,217.445,166.498,213.859,166.498z M298.841,166.498
		c-3.585,0-6.501-2.917-6.501-6.501c0-3.584,2.916-6.5,6.501-6.5c3.584,0,6.501,2.916,6.501,6.5
		C305.342,163.582,302.425,166.498,298.841,166.498z"/>
</g>
</svg>
