<?xml version="1.0" encoding="utf-8"?>
<!-- Generator: Adobe Illustrator 23.0.2, SVG Export Plug-In . SVG Version: 6.00 Build 0)  -->
<svg version="1.1" id="Vrstva_1" xmlns="http://www.w3.org/2000/svg" xmlns:xlink="http://www.w3.org/1999/xlink" x="0px" y="0px"
	 viewBox="0 0 512 256" style="enable-background:new 0 0 512 256;" xml:space="preserve">
<style type="text/css">
	.st0{fill-rule:evenodd;clip-rule:evenodd;fill:#B2B2B2;}
	.st1{fill:#B2B2B2;}
</style>
<path class="st0" d="M93,100.9c4.7,0,9.1-0.1,13.6,0c2.3,0,3.6,1.5,3.4,3.8c-0.4,5-0.8,10-1.2,15.1h24.4c0.5-6.3,1-12.5,1.5-18.9
	h17.2c-0.1,1.2-0.1,2.3-0.2,3.5c-0.4,5.1-0.9,10.2-1.3,15.4c-0.3,4.1-0.6,8.3-0.9,12.4c-0.3,4.3-0.7,8.5-1,12.8
	c-0.2,3.2-0.5,6.3-0.7,9.5c0,0.6-0.1,1-0.9,1c-5.4,0-10.8,0-16.4,0c0.6-8,1.2-16,1.8-24.1h-24.4c-0.6,8-1.2,15.9-1.9,24H88.7
	c0.1-2.1,0.3-4.2,0.4-6.2c0.2-2.2,1.8-22.8,2.3-28.8C91.9,115.3,92.9,102.3,93,100.9"/>
<path class="st1" d="M93,100.9c4.7,0,9.1-0.1,13.6,0c2.3,0,3.6,1.5,3.4,3.8c-0.4,5-0.8,10-1.2,15.1h24.4c0.5-6.3,1-12.5,1.5-18.9
	h17.2c-0.1,1.2-0.1,2.3-0.2,3.5c-0.4,5.1-0.9,10.2-1.3,15.4c-0.3,4.1-0.6,8.3-0.9,12.4c-0.3,4.3-0.7,8.5-1,12.8
	c-0.2,3.2-0.5,6.3-0.7,9.5c0,0.6-0.1,1-0.9,1c-5.4,0-10.8,0-16.4,0c0.6-8,1.2-16,1.8-24.1h-24.4c-0.6,8-1.2,15.9-1.9,24H88.7
	c0.1-2.1,0.3-4.2,0.4-6.2c0.2-2.2,1.8-22.8,2.3-28.8C91.9,115.3,92.9,102.3,93,100.9"/>
<path class="st1" d="M93,100.9c4.7,0,9.1-0.1,13.6,0c2.3,0,3.6,1.5,3.4,3.8c-0.4,5-0.8,10-1.2,15.1h24.4c0.5-6.3,1-12.5,1.5-18.9
	h17.2c-0.1,1.2-0.1,2.3-0.2,3.5c-0.4,5.1-0.9,10.2-1.3,15.4c-0.3,4.1-0.6,8.3-0.9,12.4c-0.3,4.3-0.7,8.5-1,12.8
	c-0.2,3.2-0.5,6.3-0.7,9.5c0,0.6-0.1,1-0.9,1c-5.4,0-10.8,0-16.4,0c0.6-8,1.2-16,1.8-24.1h-24.4c-0.6,8-1.2,15.9-1.9,24H88.7
	c0.1-2.1,0.3-4.2,0.4-6.2c0.2-2.2,1.8-22.8,2.3-28.8C91.9,115.3,92.9,102.3,93,100.9"/>
<path class="st1" d="M93,100.9c4.7,0,9.1-0.1,13.6,0c2.3,0,3.6,1.5,3.4,3.8c-0.4,5-0.8,10-1.2,15.1h24.4c0.5-6.3,1-12.5,1.5-18.9
	h17.2c-0.1,1.2-0.1,2.3-0.2,3.5c-0.4,5.1-0.9,10.2-1.3,15.4c-0.3,4.1-0.6,8.3-0.9,12.4c-0.3,4.3-0.7,8.5-1,12.8
	c-0.2,3.2-0.5,6.3-0.7,9.5c0,0.6-0.1,1-0.9,1c-5.4,0-10.8,0-16.4,0c0.6-8,1.2-16,1.8-24.1h-24.4c-0.6,8-1.2,15.9-1.9,24H88.7
	c0.1-2.1,0.3-4.2,0.4-6.2c0.2-2.2,1.8-22.8,2.3-28.8C91.9,115.3,92.9,102.3,93,100.9z"/>
<path class="st0" d="M277.5,155.7c0.8-12.8,1.6-25.6,2.5-38.4c2.8-0.3,5.4-0.6,8.1-0.9c4.4-0.3,8.8-0.8,13.2-0.9
	c4.6-0.1,9.2,0.1,13.8,0.4c2.8,0.2,5.6,1,7.9,2.9c2.6,2.3,3.4,5.3,3.4,8.6c0,2.9-0.3,5.9-0.5,8.8c-0.2,2.8-0.4,5.6-0.6,8.3
	c-0.2,3.7-0.5,7.4-0.7,11.1h-15.8c0.1-2.4,0.3-4.8,0.4-7.1c0.2-2.6,0.4-5.2,0.6-7.8c0.2-4,0.5-8.1,0.7-12.1c0.1-2.6-1.2-4.1-3.8-4.4
	c-1.5-0.2-3-0.3-4.4-0.2c-2.3,0.1-4.6,0.4-7,0.6c-0.6,10.4-1.3,20.7-1.9,31.1H277.5z"/>
<path class="st1" d="M277.5,155.7c0.8-12.8,1.6-25.6,2.5-38.4c2.8-0.3,5.4-0.6,8.1-0.9c4.4-0.3,8.8-0.8,13.2-0.9
	c4.6-0.1,9.2,0.1,13.8,0.4c2.8,0.2,5.6,1,7.9,2.9c2.6,2.3,3.4,5.3,3.4,8.6c0,2.9-0.3,5.9-0.5,8.8c-0.2,2.8-0.4,5.6-0.6,8.3
	c-0.2,3.7-0.5,7.4-0.7,11.1h-15.8c0.1-2.4,0.3-4.8,0.4-7.1c0.2-2.6,0.4-5.2,0.6-7.8c0.2-4,0.5-8.1,0.7-12.1c0.1-2.6-1.2-4.1-3.8-4.4
	c-1.5-0.2-3-0.3-4.4-0.2c-2.3,0.1-4.6,0.4-7,0.6c-0.6,10.4-1.3,20.7-1.9,31.1H277.5z"/>
<path class="st1" d="M277.5,155.7c0.8-12.8,1.6-25.6,2.5-38.4c2.8-0.3,5.4-0.6,8.1-0.9c4.4-0.3,8.8-0.8,13.2-0.9
	c4.6-0.1,9.2,0.1,13.8,0.4c2.8,0.2,5.6,1,7.9,2.9c2.6,2.3,3.4,5.3,3.4,8.6c0,2.9-0.3,5.9-0.5,8.8c-0.2,2.8-0.4,5.6-0.6,8.3
	c-0.2,3.7-0.5,7.4-0.7,11.1h-15.8c0.1-2.4,0.3-4.8,0.4-7.1c0.2-2.6,0.4-5.2,0.6-7.8c0.2-4,0.5-8.1,0.7-12.1c0.1-2.6-1.2-4.1-3.8-4.4
	c-1.5-0.2-3-0.3-4.4-0.2c-2.3,0.1-4.6,0.4-7,0.6c-0.6,10.4-1.3,20.7-1.9,31.1H277.5z"/>
<path class="st1" d="M277.5,155.7c0.8-12.8,1.6-25.6,2.5-38.4c2.8-0.3,5.4-0.6,8.1-0.9c4.4-0.3,8.8-0.8,13.2-0.9
	c4.6-0.1,9.2,0.1,13.8,0.4c2.8,0.2,5.6,1,7.9,2.9c2.6,2.3,3.4,5.3,3.4,8.6c0,2.9-0.3,5.9-0.5,8.8c-0.2,2.8-0.4,5.6-0.6,8.3
	c-0.2,3.7-0.5,7.4-0.7,11.1h-15.8c0.1-2.4,0.3-4.8,0.4-7.1c0.2-2.6,0.4-5.2,0.6-7.8c0.2-4,0.5-8.1,0.7-12.1c0.1-2.6-1.2-4.1-3.8-4.4
	c-1.5-0.2-3-0.3-4.4-0.2c-2.3,0.1-4.6,0.4-7,0.6c-0.6,10.4-1.3,20.7-1.9,31.1H277.5z"/>
<path class="st0" d="M392.8,138.9c0.3,2.9,1.8,4.8,4,6.2c3.6,2.2,7.5,2.6,11.6,2.6c5.7,0,11.3-0.8,17.1-1.9c-0.3,1.7-0.5,3.3-0.7,5
	c-0.1,0.7-0.3,1.5-0.3,2.2c-0.1,0.8-0.4,1.2-1.2,1.4c-4.9,1.1-9.9,1.7-15,1.8c-5.3,0.1-10.5-0.2-15.7-1.4c-4.1-0.9-7.8-2.5-10.8-5.6
	c-3.8-3.9-5.3-8.7-4.6-13.9c1.3-9.8,7.3-15.7,16.5-18.8c3.2-1.1,6.5-1.5,9.9-1.6c4.7-0.2,9.3,0.6,13.5,2.7
	c5.7,2.7,9.3,7.1,10.1,13.5c0.3,2.3,0,4.7-0.1,7.1c0,0.2-0.4,0.5-0.6,0.6c-0.3,0.1-0.6,0-1,0c-10.4,0-20.7,0-31.1,0H392.8z
	 M393.6,131.1h20c0-0.2-0.1-0.4-0.1-0.6c0-0.2-0.1-0.4-0.1-0.5c-0.3-3-1.9-5.1-4.6-6.2c-2-0.8-4.1-1-6.2-0.7
	C397.9,123.6,394.6,126.5,393.6,131.1"/>
<path class="st1" d="M392.8,138.9c0.3,2.9,1.8,4.8,4,6.2c3.6,2.2,7.5,2.6,11.6,2.6c5.7,0,11.3-0.8,17.1-1.9c-0.3,1.7-0.5,3.3-0.7,5
	c-0.1,0.7-0.3,1.5-0.3,2.2c-0.1,0.8-0.4,1.2-1.2,1.4c-4.9,1.1-9.9,1.7-15,1.8c-5.3,0.1-10.5-0.2-15.7-1.4c-4.1-0.9-7.8-2.5-10.8-5.6
	c-3.8-3.9-5.3-8.7-4.6-13.9c1.3-9.8,7.3-15.7,16.5-18.8c3.2-1.1,6.5-1.5,9.9-1.6c4.7-0.2,9.3,0.6,13.5,2.7
	c5.7,2.7,9.3,7.1,10.1,13.5c0.3,2.3,0,4.7-0.1,7.1c0,0.2-0.4,0.5-0.6,0.6c-0.3,0.1-0.6,0-1,0c-10.4,0-20.7,0-31.1,0H392.8z
	 M393.6,131.1h20c0-0.2-0.1-0.4-0.1-0.6c0-0.2-0.1-0.4-0.1-0.5c-0.3-3-1.9-5.1-4.6-6.2c-2-0.8-4.1-1-6.2-0.7
	C397.9,123.6,394.6,126.5,393.6,131.1"/>
<path class="st1" d="M392.8,138.9c0.3,2.9,1.8,4.8,4,6.2c3.6,2.2,7.5,2.6,11.6,2.6c5.7,0,11.3-0.8,17.1-1.9c-0.3,1.7-0.5,3.3-0.7,5
	c-0.1,0.7-0.3,1.5-0.3,2.2c-0.1,0.8-0.4,1.2-1.2,1.4c-4.9,1.1-9.9,1.7-15,1.8c-5.3,0.1-10.5-0.2-15.7-1.4c-4.1-0.9-7.8-2.5-10.8-5.6
	c-3.8-3.9-5.3-8.7-4.6-13.9c1.3-9.8,7.3-15.7,16.5-18.8c3.2-1.1,6.5-1.5,9.9-1.6c4.7-0.2,9.3,0.6,13.5,2.7
	c5.7,2.7,9.3,7.1,10.1,13.5c0.3,2.3,0,4.7-0.1,7.1c0,0.2-0.4,0.5-0.6,0.6c-0.3,0.1-0.6,0-1,0c-10.4,0-20.7,0-31.1,0H392.8z
	 M393.6,131.1h20c0-0.2-0.1-0.4-0.1-0.6c0-0.2-0.1-0.4-0.1-0.5c-0.3-3-1.9-5.1-4.6-6.2c-2-0.8-4.1-1-6.2-0.7
	C397.9,123.6,394.6,126.5,393.6,131.1"/>
<path class="st1" d="M392.8,138.9c0.3,2.9,1.8,4.8,4,6.2c3.6,2.2,7.5,2.6,11.6,2.6c5.7,0,11.3-0.8,17.1-1.9c-0.3,1.7-0.5,3.3-0.7,5
	c-0.1,0.7-0.3,1.5-0.3,2.2c-0.1,0.8-0.4,1.2-1.2,1.4c-4.9,1.1-9.9,1.7-15,1.8c-5.3,0.1-10.5-0.2-15.7-1.4c-4.1-0.9-7.8-2.5-10.8-5.6
	c-3.8-3.9-5.3-8.7-4.6-13.9c1.3-9.8,7.3-15.7,16.5-18.8c3.2-1.1,6.5-1.5,9.9-1.6c4.7-0.2,9.3,0.6,13.5,2.7
	c5.7,2.7,9.3,7.1,10.1,13.5c0.3,2.3,0,4.7-0.1,7.1c0,0.2-0.4,0.5-0.6,0.6c-0.3,0.1-0.6,0-1,0c-10.4,0-20.7,0-31.1,0H392.8z
	 M393.6,131.1h20c0-0.2-0.1-0.4-0.1-0.6c0-0.2-0.1-0.4-0.1-0.5c-0.3-3-1.9-5.1-4.6-6.2c-2-0.8-4.1-1-6.2-0.7
	C397.9,123.6,394.6,126.5,393.6,131.1z"/>
<path class="st0" d="M240.5,138.9c0,1.9,0.8,3.3,1.9,4.5c2.1,2.3,4.9,3.3,7.9,3.8c4.2,0.8,8.4,0.5,12.5,0c3.4-0.4,6.7-0.9,10.2-1.4
	c-0.1,0.9-0.2,1.9-0.4,2.9c-0.2,1.4-0.5,2.8-0.7,4.3c-0.1,0.7-0.5,1.1-1.2,1.3c-4.3,1-8.7,1.7-13.2,1.8c-3.6,0.1-7.3,0-10.9-0.2
	c-2.4-0.2-4.9-0.7-7.2-1.3c-3.1-0.8-6.1-1.9-8.6-3.9c-3.5-2.8-5.6-6.4-6.1-10.9c-1-9.5,3.3-16.3,11.2-21c3.9-2.3,8.3-3.3,12.8-3.7
	c4-0.3,8-0.2,11.8,1c5.4,1.7,10,4.5,12.6,9.8c1.7,3.5,1.9,7.2,1.5,11c-0.2,1.9-0.3,1.9-2.3,1.9h-30.6H240.5z M260.9,131.1
	c0.2-3-1.3-5.8-4-7.1c-2.3-1.1-4.7-1.3-7.2-1c-4.3,0.5-7.9,3.7-8.6,8.1H260.9z"/>
<path class="st1" d="M240.5,138.9c0,1.9,0.8,3.3,1.9,4.5c2.1,2.3,4.9,3.3,7.9,3.8c4.2,0.8,8.4,0.5,12.5,0c3.4-0.4,6.7-0.9,10.2-1.4
	c-0.1,0.9-0.2,1.9-0.4,2.9c-0.2,1.4-0.5,2.8-0.7,4.3c-0.1,0.7-0.5,1.1-1.2,1.3c-4.3,1-8.7,1.7-13.2,1.8c-3.6,0.1-7.3,0-10.9-0.2
	c-2.4-0.2-4.9-0.7-7.2-1.3c-3.1-0.8-6.1-1.9-8.6-3.9c-3.5-2.8-5.6-6.4-6.1-10.9c-1-9.5,3.3-16.3,11.2-21c3.9-2.3,8.3-3.3,12.8-3.7
	c4-0.3,8-0.2,11.8,1c5.4,1.7,10,4.5,12.6,9.8c1.7,3.5,1.9,7.2,1.5,11c-0.2,1.9-0.3,1.9-2.3,1.9h-30.6H240.5z M260.9,131.1
	c0.2-3-1.3-5.8-4-7.1c-2.3-1.1-4.7-1.3-7.2-1c-4.3,0.5-7.9,3.7-8.6,8.1H260.9z"/>
<path class="st1" d="M240.5,138.9c0,1.9,0.8,3.3,1.9,4.5c2.1,2.3,4.9,3.3,7.9,3.8c4.2,0.8,8.4,0.5,12.5,0c3.4-0.4,6.7-0.9,10.2-1.4
	c-0.1,0.9-0.2,1.9-0.4,2.9c-0.2,1.4-0.5,2.8-0.7,4.3c-0.1,0.7-0.5,1.1-1.2,1.3c-4.3,1-8.7,1.7-13.2,1.8c-3.6,0.1-7.3,0-10.9-0.2
	c-2.4-0.2-4.9-0.7-7.2-1.3c-3.1-0.8-6.1-1.9-8.6-3.9c-3.5-2.8-5.6-6.4-6.1-10.9c-1-9.5,3.3-16.3,11.2-21c3.9-2.3,8.3-3.3,12.8-3.7
	c4-0.3,8-0.2,11.8,1c5.4,1.7,10,4.5,12.6,9.8c1.7,3.5,1.9,7.2,1.5,11c-0.2,1.9-0.3,1.9-2.3,1.9h-30.6H240.5z M260.9,131.1
	c0.2-3-1.3-5.8-4-7.1c-2.3-1.1-4.7-1.3-7.2-1c-4.3,0.5-7.9,3.7-8.6,8.1H260.9z"/>
<path class="st1" d="M240.5,138.9c0,1.9,0.8,3.3,1.9,4.5c2.1,2.3,4.9,3.3,7.9,3.8c4.2,0.8,8.4,0.5,12.5,0c3.4-0.4,6.7-0.9,10.2-1.4
	c-0.1,0.9-0.2,1.9-0.4,2.9c-0.2,1.4-0.5,2.8-0.7,4.3c-0.1,0.7-0.5,1.1-1.2,1.3c-4.3,1-8.7,1.7-13.2,1.8c-3.6,0.1-7.3,0-10.9-0.2
	c-2.4-0.2-4.9-0.7-7.2-1.3c-3.1-0.8-6.1-1.9-8.6-3.9c-3.5-2.8-5.6-6.4-6.1-10.9c-1-9.5,3.3-16.3,11.2-21c3.9-2.3,8.3-3.3,12.8-3.7
	c4-0.3,8-0.2,11.8,1c5.4,1.7,10,4.5,12.6,9.8c1.7,3.5,1.9,7.2,1.5,11c-0.2,1.9-0.3,1.9-2.3,1.9h-30.6H240.5z M260.9,131.1
	c0.2-3-1.3-5.8-4-7.1c-2.3-1.1-4.7-1.3-7.2-1c-4.3,0.5-7.9,3.7-8.6,8.1H260.9z"/>
<path class="st0" d="M221.2,125.1c-1.7-0.3-3.3-0.5-4.9-0.8c-5.8-1-11.7-1.3-17.5-1c-0.9,0.1-1.8,0.3-2.6,0.6
	c-1.2,0.4-1.5,1.5-0.5,2.2c1.5,1,3.2,1.8,4.9,2.6c5,2.3,10.2,4.5,15.1,6.9c2.4,1.2,4.5,2.8,5.7,5.3c1.9,3.8,0.8,8.1-2.7,10.6
	c-2.5,1.8-5.3,2.7-8.3,3.3c-6,1.1-12,1.1-18.1,0.7c-2.8-0.2-5.6-0.3-8.5-0.5c-2.2-0.2-4.5-0.4-6.7-0.7c-0.2,0-0.6-0.4-0.6-0.6
	c0.1-2.8,0.3-5.6,0.5-8.4c4.2,0.5,8.2,1.3,12.2,1.5c4.1,0.3,8.3,0.1,12.5,0.1c0.3,0,0.7-0.1,1-0.3c1.3-0.6,1.4-1.8,0.2-2.5
	c-1.7-0.9-3.5-1.7-5.3-2.5c-3.8-1.6-7.7-3.1-11.4-4.8c-2.4-1-4.6-2.4-6.4-4.3c-3.9-4.1-3.3-10.2,1.3-13.5c3-2.2,6.5-3.2,10.1-3.7
	c4.8-0.8,9.7-1,14.6-0.6c5,0.4,10,1.1,15,1.6c0.5,0.1,0.9,0.2,0.8,0.9C221.7,119.9,221.4,122.5,221.2,125.1"/>
<path class="st1" d="M221.2,125.1c-1.7-0.3-3.3-0.5-4.9-0.8c-5.8-1-11.7-1.3-17.5-1c-0.9,0.1-1.8,0.3-2.6,0.6
	c-1.2,0.4-1.5,1.5-0.5,2.2c1.5,1,3.2,1.8,4.9,2.6c5,2.3,10.2,4.5,15.1,6.9c2.4,1.2,4.5,2.8,5.7,5.3c1.9,3.8,0.8,8.1-2.7,10.6
	c-2.5,1.8-5.3,2.7-8.3,3.3c-6,1.1-12,1.1-18.1,0.7c-2.8-0.2-5.6-0.3-8.5-0.5c-2.2-0.2-4.5-0.4-6.7-0.7c-0.2,0-0.6-0.4-0.6-0.6
	c0.1-2.8,0.3-5.6,0.5-8.4c4.2,0.5,8.2,1.3,12.2,1.5c4.1,0.3,8.3,0.1,12.5,0.1c0.3,0,0.7-0.1,1-0.3c1.3-0.6,1.4-1.8,0.2-2.5
	c-1.7-0.9-3.5-1.7-5.3-2.5c-3.8-1.6-7.7-3.1-11.4-4.8c-2.4-1-4.6-2.4-6.4-4.3c-3.9-4.1-3.3-10.2,1.3-13.5c3-2.2,6.5-3.2,10.1-3.7
	c4.8-0.8,9.7-1,14.6-0.6c5,0.4,10,1.1,15,1.6c0.5,0.1,0.9,0.2,0.8,0.9C221.7,119.9,221.4,122.5,221.2,125.1"/>
<path class="st1" d="M221.2,125.1c-1.7-0.3-3.3-0.5-4.9-0.8c-5.8-1-11.7-1.3-17.5-1c-0.9,0.1-1.8,0.3-2.6,0.6
	c-1.2,0.4-1.5,1.5-0.5,2.2c1.5,1,3.2,1.8,4.9,2.6c5,2.3,10.2,4.5,15.1,6.9c2.4,1.2,4.5,2.8,5.7,5.3c1.9,3.8,0.8,8.1-2.7,10.6
	c-2.5,1.8-5.3,2.7-8.3,3.3c-6,1.1-12,1.1-18.1,0.7c-2.8-0.2-5.6-0.3-8.5-0.5c-2.2-0.2-4.5-0.4-6.7-0.7c-0.2,0-0.6-0.4-0.6-0.6
	c0.1-2.8,0.3-5.6,0.5-8.4c4.2,0.5,8.2,1.3,12.2,1.5c4.1,0.3,8.3,0.1,12.5,0.1c0.3,0,0.7-0.1,1-0.3c1.3-0.6,1.4-1.8,0.2-2.5
	c-1.7-0.9-3.5-1.7-5.3-2.5c-3.8-1.6-7.7-3.1-11.4-4.8c-2.4-1-4.6-2.4-6.4-4.3c-3.9-4.1-3.3-10.2,1.3-13.5c3-2.2,6.5-3.2,10.1-3.7
	c4.8-0.8,9.7-1,14.6-0.6c5,0.4,10,1.1,15,1.6c0.5,0.1,0.9,0.2,0.8,0.9C221.7,119.9,221.4,122.5,221.2,125.1"/>
<path class="st1" d="M221.2,125.1c-1.7-0.3-3.3-0.5-4.9-0.8c-5.8-1-11.7-1.3-17.5-1c-0.9,0.1-1.8,0.3-2.6,0.6
	c-1.2,0.4-1.5,1.5-0.5,2.2c1.5,1,3.2,1.8,4.9,2.6c5,2.3,10.2,4.5,15.1,6.9c2.4,1.2,4.5,2.8,5.7,5.3c1.9,3.8,0.8,8.1-2.7,10.6
	c-2.5,1.8-5.3,2.7-8.3,3.3c-6,1.1-12,1.1-18.1,0.7c-2.8-0.2-5.6-0.3-8.5-0.5c-2.2-0.2-4.5-0.4-6.7-0.7c-0.2,0-0.6-0.4-0.6-0.6
	c0.1-2.8,0.3-5.6,0.5-8.4c4.2,0.5,8.2,1.3,12.2,1.5c4.1,0.3,8.3,0.1,12.5,0.1c0.3,0,0.7-0.1,1-0.3c1.3-0.6,1.4-1.8,0.2-2.5
	c-1.7-0.9-3.5-1.7-5.3-2.5c-3.8-1.6-7.7-3.1-11.4-4.8c-2.4-1-4.6-2.4-6.4-4.3c-3.9-4.1-3.3-10.2,1.3-13.5c3-2.2,6.5-3.2,10.1-3.7
	c4.8-0.8,9.7-1,14.6-0.6c5,0.4,10,1.1,15,1.6c0.5,0.1,0.9,0.2,0.8,0.9C221.7,119.9,221.4,122.5,221.2,125.1z"/>
<path class="st0" d="M336.1,135.7c-1.6-0.9-2.8-2.2-4-3.5c-3.5-4-2.7-9.8,1.7-12.9c3-2.2,6.5-3.2,10.1-3.7c4.8-0.8,9.7-1,14.6-0.6
	c5,0.4,10,1.1,15,1.6c0.7,0.1,0.9,0.4,0.8,1.1c-0.3,2.4-0.5,4.9-0.7,7.4c-1.7-0.3-3.3-0.5-4.8-0.8c-5.8-1-11.6-1.3-17.5-1
	c-0.8,0-1.7,0.2-2.4,0.5c-0.5,0.2-1.1,0.7-1.2,1.1c-0.1,0.4,0.3,1.1,0.7,1.4c1,0.7,2.1,1.3,3.2,1.8c4.9,2.2,9.9,4.3,14.8,6.5
	c2.5,1.1,4.8,2.6,6.6,4.8c3,3.7,2.3,9.2-1.5,12c-2.9,2.1-6.2,3-9.6,3.6c-5.2,0.9-10.5,0.8-15.8,0.6c-4.9-0.2-9.8-0.6-14.7-1
	c-2-0.2-2.1-0.2-2-2.2c0.1-2.3,0.3-4.7,0.5-7c4.2,0.5,8.3,1.2,12.4,1.5c4.1,0.3,8.2,0.1,12.2,0.1c0.3,0,0.7-0.1,0.9-0.3
	c0.4-0.3,1-0.8,1.1-1.2c0-0.4-0.4-1.1-0.8-1.4c-1.3-0.7-2.7-1.4-4.1-2c-3.6-1.5-7.1-2.9-10.7-4.3
	C340.8,137.9,339.5,137.5,336.1,135.7"/>
<path class="st1" d="M336.1,135.7c-1.6-0.9-2.8-2.2-4-3.5c-3.5-4-2.7-9.8,1.7-12.9c3-2.2,6.5-3.2,10.1-3.7c4.8-0.8,9.7-1,14.6-0.6
	c5,0.4,10,1.1,15,1.6c0.7,0.1,0.9,0.4,0.8,1.1c-0.3,2.4-0.5,4.9-0.7,7.4c-1.7-0.3-3.3-0.5-4.8-0.8c-5.8-1-11.6-1.3-17.5-1
	c-0.8,0-1.7,0.2-2.4,0.5c-0.5,0.2-1.1,0.7-1.2,1.1c-0.1,0.4,0.3,1.1,0.7,1.4c1,0.7,2.1,1.3,3.2,1.8c4.9,2.2,9.9,4.3,14.8,6.5
	c2.5,1.1,4.8,2.6,6.6,4.8c3,3.7,2.3,9.2-1.5,12c-2.9,2.1-6.2,3-9.6,3.6c-5.2,0.9-10.5,0.8-15.8,0.6c-4.9-0.2-9.8-0.6-14.7-1
	c-2-0.2-2.1-0.2-2-2.2c0.1-2.3,0.3-4.7,0.5-7c4.2,0.5,8.3,1.2,12.4,1.5c4.1,0.3,8.2,0.1,12.2,0.1c0.3,0,0.7-0.1,0.9-0.3
	c0.4-0.3,1-0.8,1.1-1.2c0-0.4-0.4-1.1-0.8-1.4c-1.3-0.7-2.7-1.4-4.1-2c-3.6-1.5-7.1-2.9-10.7-4.3
	C340.8,137.9,339.5,137.5,336.1,135.7"/>
<path class="st1" d="M336.1,135.7c-1.6-0.9-2.8-2.2-4-3.5c-3.5-4-2.7-9.8,1.7-12.9c3-2.2,6.5-3.2,10.1-3.7c4.8-0.8,9.7-1,14.6-0.6
	c5,0.4,10,1.1,15,1.6c0.7,0.1,0.9,0.4,0.8,1.1c-0.3,2.4-0.5,4.9-0.7,7.4c-1.7-0.3-3.3-0.5-4.8-0.8c-5.8-1-11.6-1.3-17.5-1
	c-0.8,0-1.7,0.2-2.4,0.5c-0.5,0.2-1.1,0.7-1.2,1.1c-0.1,0.4,0.3,1.1,0.7,1.4c1,0.7,2.1,1.3,3.2,1.8c4.9,2.2,9.9,4.3,14.8,6.5
	c2.5,1.1,4.8,2.6,6.6,4.8c3,3.7,2.3,9.2-1.5,12c-2.9,2.1-6.2,3-9.6,3.6c-5.2,0.9-10.5,0.8-15.8,0.6c-4.9-0.2-9.8-0.6-14.7-1
	c-2-0.2-2.1-0.2-2-2.2c0.1-2.3,0.3-4.7,0.5-7c4.2,0.5,8.3,1.2,12.4,1.5c4.1,0.3,8.2,0.1,12.2,0.1c0.3,0,0.7-0.1,0.9-0.3
	c0.4-0.3,1-0.8,1.1-1.2c0-0.4-0.4-1.1-0.8-1.4c-1.3-0.7-2.7-1.4-4.1-2c-3.6-1.5-7.1-2.9-10.7-4.3
	C340.8,137.9,339.5,137.5,336.1,135.7"/>
<path class="st1" d="M336.1,135.7c-1.6-0.9-2.8-2.2-4-3.5c-3.5-4-2.7-9.8,1.7-12.9c3-2.2,6.5-3.2,10.1-3.7c4.8-0.8,9.7-1,14.6-0.6
	c5,0.4,10,1.1,15,1.6c0.7,0.1,0.9,0.4,0.8,1.1c-0.3,2.4-0.5,4.9-0.7,7.4c-1.7-0.3-3.3-0.5-4.8-0.8c-5.8-1-11.6-1.3-17.5-1
	c-0.8,0-1.7,0.2-2.4,0.5c-0.5,0.2-1.1,0.7-1.2,1.1c-0.1,0.4,0.3,1.1,0.7,1.4c1,0.7,2.1,1.3,3.2,1.8c4.9,2.2,9.9,4.3,14.8,6.5
	c2.5,1.1,4.8,2.6,6.6,4.8c3,3.7,2.3,9.2-1.5,12c-2.9,2.1-6.2,3-9.6,3.6c-5.2,0.9-10.5,0.8-15.8,0.6c-4.9-0.2-9.8-0.6-14.7-1
	c-2-0.2-2.1-0.2-2-2.2c0.1-2.3,0.3-4.7,0.5-7c4.2,0.5,8.3,1.2,12.4,1.5c4.1,0.3,8.2,0.1,12.2,0.1c0.3,0,0.7-0.1,0.9-0.3
	c0.4-0.3,1-0.8,1.1-1.2c0-0.4-0.4-1.1-0.8-1.4c-1.3-0.7-2.7-1.4-4.1-2c-3.6-1.5-7.1-2.9-10.7-4.3
	C340.8,137.9,339.5,137.5,336.1,135.7z"/>
<path class="st0" d="M157,115.7h16.9c-1,13.3-2,26.5-3,39.7h-16.9C154.9,142.2,155.9,129,157,115.7"/>
<path class="st1" d="M157,115.7h16.9c-1,13.3-2,26.5-3,39.7h-16.9C154.9,142.2,155.9,129,157,115.7"/>
<path class="st1" d="M157,115.7h16.9c-1,13.3-2,26.5-3,39.7h-16.9C154.9,142.2,155.9,129,157,115.7"/>
<path class="st1" d="M157,115.7h16.9c-1,13.3-2,26.5-3,39.7h-16.9C154.9,142.2,155.9,129,157,115.7z"/>
<path class="st0" d="M157.4,111.4c0.3-3.6,0.5-7,0.8-10.5c0.4,0,0.8,0,1.1,0c4,0,7.9,0,11.9,0c2.9,0,3.8,1.1,3.6,3.9
	c-0.1,1.1-0.2,2.2-0.2,3.4c-0.1,1.1-0.1,2.1-0.2,3.2H157.4z"/>
<path class="st1" d="M157.4,111.4c0.3-3.6,0.5-7,0.8-10.5c0.4,0,0.8,0,1.1,0c4,0,7.9,0,11.9,0c2.9,0,3.8,1.1,3.6,3.9
	c-0.1,1.1-0.2,2.2-0.2,3.4c-0.1,1.1-0.1,2.1-0.2,3.2H157.4z"/>
<path class="st1" d="M157.4,111.4c0.3-3.6,0.5-7,0.8-10.5c0.4,0,0.8,0,1.1,0c4,0,7.9,0,11.9,0c2.9,0,3.8,1.1,3.6,3.9
	c-0.1,1.1-0.2,2.2-0.2,3.4c-0.1,1.1-0.1,2.1-0.2,3.2H157.4z"/>
<path class="st1" d="M157.4,111.4c0.3-3.6,0.5-7,0.8-10.5c0.4,0,0.8,0,1.1,0c4,0,7.9,0,11.9,0c2.9,0,3.8,1.1,3.6,3.9
	c-0.1,1.1-0.2,2.2-0.2,3.4c-0.1,1.1-0.1,2.1-0.2,3.2H157.4z"/>
<path class="st0" d="M93,100.9c4.7,0,9.1-0.1,13.6,0c2.3,0,3.6,1.5,3.4,3.8c-0.4,5-0.8,10-1.2,15.1h24.4c0.5-6.3,1-12.5,1.5-18.9
	h17.2c-0.1,1.2-0.1,2.3-0.2,3.5c-0.4,5.1-0.9,10.2-1.3,15.4c-0.3,4.1-0.6,8.3-0.9,12.4c-0.3,4.3-0.7,8.5-1,12.8
	c-0.2,3.2-0.5,6.3-0.7,9.5c0,0.6-0.1,1-0.9,1c-5.4,0-10.8,0-16.4,0c0.6-8,1.2-16,1.8-24.1h-24.4c-0.6,8-1.2,15.9-1.9,24H88.7
	c0.1-2.1,0.3-4.2,0.4-6.2c0.2-2.2,1.8-22.8,2.3-28.8C91.9,115.3,92.9,102.3,93,100.9"/>
<path class="st1" d="M93,100.9c4.7,0,9.1-0.1,13.6,0c2.3,0,3.6,1.5,3.4,3.8c-0.4,5-0.8,10-1.2,15.1h24.4c0.5-6.3,1-12.5,1.5-18.9
	h17.2c-0.1,1.2-0.1,2.3-0.2,3.5c-0.4,5.1-0.9,10.2-1.3,15.4c-0.3,4.1-0.6,8.3-0.9,12.4c-0.3,4.3-0.7,8.5-1,12.8
	c-0.2,3.2-0.5,6.3-0.7,9.5c0,0.6-0.1,1-0.9,1c-5.4,0-10.8,0-16.4,0c0.6-8,1.2-16,1.8-24.1h-24.4c-0.6,8-1.2,15.9-1.9,24H88.7
	c0.1-2.1,0.3-4.2,0.4-6.2c0.2-2.2,1.8-22.8,2.3-28.8C91.9,115.3,92.9,102.3,93,100.9"/>
<path class="st0" d="M277.5,155.7c0.8-12.8,1.6-25.6,2.5-38.4c2.8-0.3,5.4-0.6,8.1-0.9c4.4-0.3,8.8-0.8,13.2-0.9
	c4.6-0.1,9.2,0.1,13.8,0.4c2.8,0.2,5.6,1,7.9,2.9c2.6,2.3,3.4,5.3,3.4,8.6c0,2.9-0.3,5.9-0.5,8.8c-0.2,2.8-0.4,5.6-0.6,8.3
	c-0.2,3.7-0.5,7.4-0.7,11.1h-15.8c0.1-2.4,0.3-4.8,0.4-7.1c0.2-2.6,0.4-5.2,0.6-7.8c0.2-4,0.5-8.1,0.7-12.1c0.1-2.6-1.2-4.1-3.8-4.4
	c-1.5-0.2-3-0.3-4.4-0.2c-2.3,0.1-4.6,0.4-7,0.6c-0.6,10.4-1.3,20.7-1.9,31.1H277.5z"/>
<path class="st1" d="M277.5,155.7c0.8-12.8,1.6-25.6,2.5-38.4c2.8-0.3,5.4-0.6,8.1-0.9c4.4-0.3,8.8-0.8,13.2-0.9
	c4.6-0.1,9.2,0.1,13.8,0.4c2.8,0.2,5.6,1,7.9,2.9c2.6,2.3,3.4,5.3,3.4,8.6c0,2.9-0.3,5.9-0.5,8.8c-0.2,2.8-0.4,5.6-0.6,8.3
	c-0.2,3.7-0.5,7.4-0.7,11.1h-15.8c0.1-2.4,0.3-4.8,0.4-7.1c0.2-2.6,0.4-5.2,0.6-7.8c0.2-4,0.5-8.1,0.7-12.1c0.1-2.6-1.2-4.1-3.8-4.4
	c-1.5-0.2-3-0.3-4.4-0.2c-2.3,0.1-4.6,0.4-7,0.6c-0.6,10.4-1.3,20.7-1.9,31.1H277.5z"/>
<path class="st0" d="M392.8,138.9c0.3,2.9,1.8,4.8,4,6.2c3.6,2.2,7.5,2.6,11.6,2.6c5.7,0,11.3-0.8,17.1-1.9c-0.3,1.7-0.5,3.3-0.7,5
	c-0.1,0.7-0.3,1.5-0.3,2.2c-0.1,0.8-0.4,1.2-1.2,1.4c-4.9,1.1-9.9,1.7-15,1.8c-5.3,0.1-10.5-0.2-15.7-1.4c-4.1-0.9-7.8-2.5-10.8-5.6
	c-3.8-3.9-5.3-8.7-4.6-13.9c1.3-9.8,7.3-15.7,16.5-18.8c3.2-1.1,6.5-1.5,9.9-1.6c4.7-0.2,9.3,0.6,13.5,2.7
	c5.7,2.7,9.3,7.1,10.1,13.5c0.3,2.3,0,4.7-0.1,7.1c0,0.2-0.4,0.5-0.6,0.6c-0.3,0.1-0.6,0-1,0c-10.4,0-20.7,0-31.1,0H392.8z
	 M393.6,131.1h20c0-0.2-0.1-0.4-0.1-0.6c0-0.2-0.1-0.4-0.1-0.5c-0.3-3-1.9-5.1-4.6-6.2c-2-0.8-4.1-1-6.2-0.7
	C397.9,123.6,394.6,126.5,393.6,131.1"/>
<path class="st1" d="M392.8,138.9c0.3,2.9,1.8,4.8,4,6.2c3.6,2.2,7.5,2.6,11.6,2.6c5.7,0,11.3-0.8,17.1-1.9c-0.3,1.7-0.5,3.3-0.7,5
	c-0.1,0.7-0.3,1.5-0.3,2.2c-0.1,0.8-0.4,1.2-1.2,1.4c-4.9,1.1-9.9,1.7-15,1.8c-5.3,0.1-10.5-0.2-15.7-1.4c-4.1-0.9-7.8-2.5-10.8-5.6
	c-3.8-3.9-5.3-8.7-4.6-13.9c1.3-9.8,7.3-15.7,16.5-18.8c3.2-1.1,6.5-1.5,9.9-1.6c4.7-0.2,9.3,0.6,13.5,2.7
	c5.7,2.7,9.3,7.1,10.1,13.5c0.3,2.3,0,4.7-0.1,7.1c0,0.2-0.4,0.5-0.6,0.6c-0.3,0.1-0.6,0-1,0c-10.4,0-20.7,0-31.1,0H392.8z
	 M393.6,131.1h20c0-0.2-0.1-0.4-0.1-0.6c0-0.2-0.1-0.4-0.1-0.5c-0.3-3-1.9-5.1-4.6-6.2c-2-0.8-4.1-1-6.2-0.7
	C397.9,123.6,394.6,126.5,393.6,131.1"/>
<path class="st0" d="M240.5,138.9c0,1.9,0.8,3.3,1.9,4.5c2.1,2.3,4.9,3.3,7.9,3.8c4.2,0.8,8.4,0.5,12.5,0c3.4-0.4,6.7-0.9,10.2-1.4
	c-0.1,0.9-0.2,1.9-0.4,2.9c-0.2,1.4-0.5,2.8-0.7,4.3c-0.1,0.7-0.5,1.1-1.2,1.3c-4.3,1-8.7,1.7-13.2,1.8c-3.6,0.1-7.3,0-10.9-0.2
	c-2.4-0.2-4.9-0.7-7.2-1.3c-3.1-0.8-6.1-1.9-8.6-3.9c-3.5-2.8-5.6-6.4-6.1-10.9c-1-9.5,3.3-16.3,11.2-21c3.9-2.3,8.3-3.3,12.8-3.7
	c4-0.3,8-0.2,11.8,1c5.4,1.7,10,4.5,12.6,9.8c1.7,3.5,1.9,7.2,1.5,11c-0.2,1.9-0.3,1.9-2.3,1.9h-30.6H240.5z M260.9,131.1
	c0.2-3-1.3-5.8-4-7.1c-2.3-1.1-4.7-1.3-7.2-1c-4.3,0.5-7.9,3.7-8.6,8.1H260.9z"/>
<path class="st1" d="M240.5,138.9c0,1.9,0.8,3.3,1.9,4.5c2.1,2.3,4.9,3.3,7.9,3.8c4.2,0.8,8.4,0.5,12.5,0c3.4-0.4,6.7-0.9,10.2-1.4
	c-0.1,0.9-0.2,1.9-0.4,2.9c-0.2,1.4-0.5,2.8-0.7,4.3c-0.1,0.7-0.5,1.1-1.2,1.3c-4.3,1-8.7,1.7-13.2,1.8c-3.6,0.1-7.3,0-10.9-0.2
	c-2.4-0.2-4.9-0.7-7.2-1.3c-3.1-0.8-6.1-1.9-8.6-3.9c-3.5-2.8-5.6-6.4-6.1-10.9c-1-9.5,3.3-16.3,11.2-21c3.9-2.3,8.3-3.3,12.8-3.7
	c4-0.3,8-0.2,11.8,1c5.4,1.7,10,4.5,12.6,9.8c1.7,3.5,1.9,7.2,1.5,11c-0.2,1.9-0.3,1.9-2.3,1.9h-30.6H240.5z M260.9,131.1
	c0.2-3-1.3-5.8-4-7.1c-2.3-1.1-4.7-1.3-7.2-1c-4.3,0.5-7.9,3.7-8.6,8.1H260.9z"/>
<path class="st0" d="M221.2,125.1c-1.7-0.3-3.3-0.5-4.9-0.8c-5.8-1-11.7-1.3-17.5-1c-0.9,0.1-1.8,0.3-2.6,0.6
	c-1.2,0.4-1.5,1.5-0.5,2.2c1.5,1,3.2,1.8,4.9,2.6c5,2.3,10.2,4.5,15.1,6.9c2.4,1.2,4.5,2.8,5.7,5.3c1.9,3.8,0.8,8.1-2.7,10.6
	c-2.5,1.8-5.3,2.7-8.3,3.3c-6,1.1-12,1.1-18.1,0.7c-2.8-0.2-5.6-0.3-8.5-0.5c-2.2-0.2-4.5-0.4-6.7-0.7c-0.2,0-0.6-0.4-0.6-0.6
	c0.1-2.8,0.3-5.6,0.5-8.4c4.2,0.5,8.2,1.3,12.2,1.5c4.1,0.3,8.3,0.1,12.5,0.1c0.3,0,0.7-0.1,1-0.3c1.3-0.6,1.4-1.8,0.2-2.5
	c-1.7-0.9-3.5-1.7-5.3-2.5c-3.8-1.6-7.7-3.1-11.4-4.8c-2.4-1-4.6-2.4-6.4-4.3c-3.9-4.1-3.3-10.2,1.3-13.5c3-2.2,6.5-3.2,10.1-3.7
	c4.8-0.8,9.7-1,14.6-0.6c5,0.4,10,1.1,15,1.6c0.5,0.1,0.9,0.2,0.8,0.9C221.7,119.9,221.4,122.5,221.2,125.1"/>
<path class="st1" d="M221.2,125.1c-1.7-0.3-3.3-0.5-4.9-0.8c-5.8-1-11.7-1.3-17.5-1c-0.9,0.1-1.8,0.3-2.6,0.6
	c-1.2,0.4-1.5,1.5-0.5,2.2c1.5,1,3.2,1.8,4.9,2.6c5,2.3,10.2,4.5,15.1,6.9c2.4,1.2,4.5,2.8,5.7,5.3c1.9,3.8,0.8,8.1-2.7,10.6
	c-2.5,1.8-5.3,2.7-8.3,3.3c-6,1.1-12,1.1-18.1,0.7c-2.8-0.2-5.6-0.3-8.5-0.5c-2.2-0.2-4.5-0.4-6.7-0.7c-0.2,0-0.6-0.4-0.6-0.6
	c0.1-2.8,0.3-5.6,0.5-8.4c4.2,0.5,8.2,1.3,12.2,1.5c4.1,0.3,8.3,0.1,12.5,0.1c0.3,0,0.7-0.1,1-0.3c1.3-0.6,1.4-1.8,0.2-2.5
	c-1.7-0.9-3.5-1.7-5.3-2.5c-3.8-1.6-7.7-3.1-11.4-4.8c-2.4-1-4.6-2.4-6.4-4.3c-3.9-4.1-3.3-10.2,1.3-13.5c3-2.2,6.5-3.2,10.1-3.7
	c4.8-0.8,9.7-1,14.6-0.6c5,0.4,10,1.1,15,1.6c0.5,0.1,0.9,0.2,0.8,0.9C221.7,119.9,221.4,122.5,221.2,125.1"/>
<path class="st0" d="M336.1,135.7c-1.6-0.9-2.8-2.2-4-3.5c-3.5-4-2.7-9.8,1.7-12.9c3-2.2,6.5-3.2,10.1-3.7c4.8-0.8,9.7-1,14.6-0.6
	c5,0.4,10,1.1,15,1.6c0.7,0.1,0.9,0.4,0.8,1.1c-0.3,2.4-0.5,4.9-0.7,7.4c-1.7-0.3-3.3-0.5-4.8-0.8c-5.8-1-11.6-1.3-17.5-1
	c-0.8,0-1.7,0.2-2.4,0.5c-0.5,0.2-1.1,0.7-1.2,1.1c-0.1,0.4,0.3,1.1,0.7,1.4c1,0.7,2.1,1.3,3.2,1.8c4.9,2.2,9.9,4.3,14.8,6.5
	c2.5,1.1,4.8,2.6,6.6,4.8c3,3.7,2.3,9.2-1.5,12c-2.9,2.1-6.2,3-9.6,3.6c-5.2,0.9-10.5,0.8-15.8,0.6c-4.9-0.2-9.8-0.6-14.7-1
	c-2-0.2-2.1-0.2-2-2.2c0.1-2.3,0.3-4.7,0.5-7c4.2,0.5,8.3,1.2,12.4,1.5c4.1,0.3,8.2,0.1,12.2,0.1c0.3,0,0.7-0.1,0.9-0.3
	c0.4-0.3,1-0.8,1.1-1.2c0-0.4-0.4-1.1-0.8-1.4c-1.3-0.7-2.7-1.4-4.1-2c-3.6-1.5-7.1-2.9-10.7-4.3
	C340.8,137.9,339.5,137.5,336.1,135.7"/>
<path class="st1" d="M336.1,135.7c-1.6-0.9-2.8-2.2-4-3.5c-3.5-4-2.7-9.8,1.7-12.9c3-2.2,6.5-3.2,10.1-3.7c4.8-0.8,9.7-1,14.6-0.6
	c5,0.4,10,1.1,15,1.6c0.7,0.1,0.9,0.4,0.8,1.1c-0.3,2.4-0.5,4.9-0.7,7.4c-1.7-0.3-3.3-0.5-4.8-0.8c-5.8-1-11.6-1.3-17.5-1
	c-0.8,0-1.7,0.2-2.4,0.5c-0.5,0.2-1.1,0.7-1.2,1.1c-0.1,0.4,0.3,1.1,0.7,1.4c1,0.7,2.1,1.3,3.2,1.8c4.9,2.2,9.9,4.3,14.8,6.5
	c2.5,1.1,4.8,2.6,6.6,4.8c3,3.7,2.3,9.2-1.5,12c-2.9,2.1-6.2,3-9.6,3.6c-5.2,0.9-10.5,0.8-15.8,0.6c-4.9-0.2-9.8-0.6-14.7-1
	c-2-0.2-2.1-0.2-2-2.2c0.1-2.3,0.3-4.7,0.5-7c4.2,0.5,8.3,1.2,12.4,1.5c4.1,0.3,8.2,0.1,12.2,0.1c0.3,0,0.7-0.1,0.9-0.3
	c0.4-0.3,1-0.8,1.1-1.2c0-0.4-0.4-1.1-0.8-1.4c-1.3-0.7-2.7-1.4-4.1-2c-3.6-1.5-7.1-2.9-10.7-4.3
	C340.8,137.9,339.5,137.5,336.1,135.7"/>
<path class="st0" d="M157,115.7h16.9c-1,13.3-2,26.5-3,39.7h-16.9C154.9,142.2,155.9,129,157,115.7"/>
<path class="st1" d="M157,115.7h16.9c-1,13.3-2,26.5-3,39.7h-16.9C154.9,142.2,155.9,129,157,115.7"/>
<path class="st0" d="M157.4,111.4c0.3-3.6,0.5-7,0.8-10.5c0.4,0,0.8,0,1.1,0c4,0,7.9,0,11.9,0c2.9,0,3.8,1.1,3.6,3.9
	c-0.1,1.1-0.2,2.2-0.2,3.4c-0.1,1.1-0.1,2.1-0.2,3.2H157.4z"/>
<path class="st1" d="M157.4,111.4c0.3-3.6,0.5-7,0.8-10.5c0.4,0,0.8,0,1.1,0c4,0,7.9,0,11.9,0c2.9,0,3.8,1.1,3.6,3.9
	c-0.1,1.1-0.2,2.2-0.2,3.4c-0.1,1.1-0.1,2.1-0.2,3.2H157.4z"/>
<path class="st0" d="M93,100.9c4.7,0,9.1-0.1,13.6,0c2.3,0,3.6,1.5,3.4,3.8c-0.4,5-0.8,10-1.2,15.1h24.4c0.5-6.3,1-12.5,1.5-18.9
	h17.2c-0.1,1.2-0.1,2.3-0.2,3.5c-0.4,5.1-0.9,10.2-1.3,15.4c-0.3,4.1-0.6,8.3-0.9,12.4c-0.3,4.3-0.7,8.5-1,12.8
	c-0.2,3.2-0.5,6.3-0.7,9.5c0,0.6-0.1,1-0.9,1c-5.4,0-10.8,0-16.4,0c0.6-8,1.2-16,1.8-24.1h-24.4c-0.6,8-1.2,15.9-1.9,24H88.7
	c0.1-2.1,0.3-4.2,0.4-6.2c0.2-2.2,1.8-22.8,2.3-28.8C91.9,115.3,92.9,102.3,93,100.9"/>
<path class="st1" d="M93,100.9c4.7,0,9.1-0.1,13.6,0c2.3,0,3.6,1.5,3.4,3.8c-0.4,5-0.8,10-1.2,15.1h24.4c0.5-6.3,1-12.5,1.5-18.9
	h17.2c-0.1,1.2-0.1,2.3-0.2,3.5c-0.4,5.1-0.9,10.2-1.3,15.4c-0.3,4.1-0.6,8.3-0.9,12.4c-0.3,4.3-0.7,8.5-1,12.8
	c-0.2,3.2-0.5,6.3-0.7,9.5c0,0.6-0.1,1-0.9,1c-5.4,0-10.8,0-16.4,0c0.6-8,1.2-16,1.8-24.1h-24.4c-0.6,8-1.2,15.9-1.9,24H88.7
	c0.1-2.1,0.3-4.2,0.4-6.2c0.2-2.2,1.8-22.8,2.3-28.8C91.9,115.3,92.9,102.3,93,100.9"/>
<path class="st1" d="M93,100.9c4.7,0,9.1-0.1,13.6,0c2.3,0,3.6,1.5,3.4,3.8c-0.4,5-0.8,10-1.2,15.1h24.4c0.5-6.3,1-12.5,1.5-18.9
	h17.2c-0.1,1.2-0.1,2.3-0.2,3.5c-0.4,5.1-0.9,10.2-1.3,15.4c-0.3,4.1-0.6,8.3-0.9,12.4c-0.3,4.3-0.7,8.5-1,12.8
	c-0.2,3.2-0.5,6.3-0.7,9.5c0,0.6-0.1,1-0.9,1c-5.4,0-10.8,0-16.4,0c0.6-8,1.2-16,1.8-24.1h-24.4c-0.6,8-1.2,15.9-1.9,24H88.7
	c0.1-2.1,0.3-4.2,0.4-6.2c0.2-2.2,1.8-22.8,2.3-28.8C91.9,115.3,92.9,102.3,93,100.9z"/>
<path class="st0" d="M277.5,155.7c0.8-12.8,1.6-25.6,2.5-38.4c2.8-0.3,5.4-0.6,8.1-0.9c4.4-0.3,8.8-0.8,13.2-0.9
	c4.6-0.1,9.2,0.1,13.8,0.4c2.8,0.2,5.6,1,7.9,2.9c2.6,2.3,3.4,5.3,3.4,8.6c0,2.9-0.3,5.9-0.5,8.8c-0.2,2.8-0.4,5.6-0.6,8.3
	c-0.2,3.7-0.5,7.4-0.7,11.1h-15.8c0.1-2.4,0.3-4.8,0.4-7.1c0.2-2.6,0.4-5.2,0.6-7.8c0.2-4,0.5-8.1,0.7-12.1c0.1-2.6-1.2-4.1-3.8-4.4
	c-1.5-0.2-3-0.3-4.4-0.2c-2.3,0.1-4.6,0.4-7,0.6c-0.6,10.4-1.3,20.7-1.9,31.1H277.5z"/>
<path class="st1" d="M277.5,155.7c0.8-12.8,1.6-25.6,2.5-38.4c2.8-0.3,5.4-0.6,8.1-0.9c4.4-0.3,8.8-0.8,13.2-0.9
	c4.6-0.1,9.2,0.1,13.8,0.4c2.8,0.2,5.6,1,7.9,2.9c2.6,2.3,3.4,5.3,3.4,8.6c0,2.9-0.3,5.9-0.5,8.8c-0.2,2.8-0.4,5.6-0.6,8.3
	c-0.2,3.7-0.5,7.4-0.7,11.1h-15.8c0.1-2.4,0.3-4.8,0.4-7.1c0.2-2.6,0.4-5.2,0.6-7.8c0.2-4,0.5-8.1,0.7-12.1c0.1-2.6-1.2-4.1-3.8-4.4
	c-1.5-0.2-3-0.3-4.4-0.2c-2.3,0.1-4.6,0.4-7,0.6c-0.6,10.4-1.3,20.7-1.9,31.1H277.5z"/>
<path class="st1" d="M277.5,155.7c0.8-12.8,1.6-25.6,2.5-38.4c2.8-0.3,5.4-0.6,8.1-0.9c4.4-0.3,8.8-0.8,13.2-0.9
	c4.6-0.1,9.2,0.1,13.8,0.4c2.8,0.2,5.6,1,7.9,2.9c2.6,2.3,3.4,5.3,3.4,8.6c0,2.9-0.3,5.9-0.5,8.8c-0.2,2.8-0.4,5.6-0.6,8.3
	c-0.2,3.7-0.5,7.4-0.7,11.1h-15.8c0.1-2.4,0.3-4.8,0.4-7.1c0.2-2.6,0.4-5.2,0.6-7.8c0.2-4,0.5-8.1,0.7-12.1c0.1-2.6-1.2-4.1-3.8-4.4
	c-1.5-0.2-3-0.3-4.4-0.2c-2.3,0.1-4.6,0.4-7,0.6c-0.6,10.4-1.3,20.7-1.9,31.1H277.5z"/>
<path class="st0" d="M392.8,138.9c0.3,2.9,1.8,4.8,4,6.2c3.6,2.2,7.5,2.6,11.6,2.6c5.7,0,11.3-0.8,17.1-1.9c-0.3,1.7-0.5,3.3-0.7,5
	c-0.1,0.7-0.3,1.5-0.3,2.2c-0.1,0.8-0.4,1.2-1.2,1.4c-4.9,1.1-9.9,1.7-15,1.8c-5.3,0.1-10.5-0.2-15.7-1.4c-4.1-0.9-7.8-2.5-10.8-5.6
	c-3.8-3.9-5.3-8.7-4.6-13.9c1.3-9.8,7.3-15.7,16.5-18.8c3.2-1.1,6.5-1.5,9.9-1.6c4.7-0.2,9.3,0.6,13.5,2.7
	c5.7,2.7,9.3,7.1,10.1,13.5c0.3,2.3,0,4.7-0.1,7.1c0,0.2-0.4,0.5-0.6,0.6c-0.3,0.1-0.6,0-1,0c-10.4,0-20.7,0-31.1,0H392.8z
	 M393.6,131.1h20c0-0.2-0.1-0.4-0.1-0.6c0-0.2-0.1-0.4-0.1-0.5c-0.3-3-1.9-5.1-4.6-6.2c-2-0.8-4.1-1-6.2-0.7
	C397.9,123.6,394.6,126.5,393.6,131.1"/>
<path class="st1" d="M392.8,138.9c0.3,2.9,1.8,4.8,4,6.2c3.6,2.2,7.5,2.6,11.6,2.6c5.7,0,11.3-0.8,17.1-1.9c-0.3,1.7-0.5,3.3-0.7,5
	c-0.1,0.7-0.3,1.5-0.3,2.2c-0.1,0.8-0.4,1.2-1.2,1.4c-4.9,1.1-9.9,1.7-15,1.8c-5.3,0.1-10.5-0.2-15.7-1.4c-4.1-0.9-7.8-2.5-10.8-5.6
	c-3.8-3.9-5.3-8.7-4.6-13.9c1.3-9.8,7.3-15.7,16.5-18.8c3.2-1.1,6.5-1.5,9.9-1.6c4.7-0.2,9.3,0.6,13.5,2.7
	c5.7,2.7,9.3,7.1,10.1,13.5c0.3,2.3,0,4.7-0.1,7.1c0,0.2-0.4,0.5-0.6,0.6c-0.3,0.1-0.6,0-1,0c-10.4,0-20.7,0-31.1,0H392.8z
	 M393.6,131.1h20c0-0.2-0.1-0.4-0.1-0.6c0-0.2-0.1-0.4-0.1-0.5c-0.3-3-1.9-5.1-4.6-6.2c-2-0.8-4.1-1-6.2-0.7
	C397.9,123.6,394.6,126.5,393.6,131.1"/>
<path class="st1" d="M392.8,138.9c0.3,2.9,1.8,4.8,4,6.2c3.6,2.2,7.5,2.6,11.6,2.6c5.7,0,11.3-0.8,17.1-1.9c-0.3,1.7-0.5,3.3-0.7,5
	c-0.1,0.7-0.3,1.5-0.3,2.2c-0.1,0.8-0.4,1.2-1.2,1.4c-4.9,1.1-9.9,1.7-15,1.8c-5.3,0.1-10.5-0.2-15.7-1.4c-4.1-0.9-7.8-2.5-10.8-5.6
	c-3.8-3.9-5.3-8.7-4.6-13.9c1.3-9.8,7.3-15.7,16.5-18.8c3.2-1.1,6.5-1.5,9.9-1.6c4.7-0.2,9.3,0.6,13.5,2.7
	c5.7,2.7,9.3,7.1,10.1,13.5c0.3,2.3,0,4.7-0.1,7.1c0,0.2-0.4,0.5-0.6,0.6c-0.3,0.1-0.6,0-1,0c-10.4,0-20.7,0-31.1,0H392.8z
	 M393.6,131.1h20c0-0.2-0.1-0.4-0.1-0.6c0-0.2-0.1-0.4-0.1-0.5c-0.3-3-1.9-5.1-4.6-6.2c-2-0.8-4.1-1-6.2-0.7
	C397.9,123.6,394.6,126.5,393.6,131.1z"/>
<path class="st0" d="M240.5,138.9c0,1.9,0.8,3.3,1.9,4.5c2.1,2.3,4.9,3.3,7.9,3.8c4.2,0.8,8.4,0.5,12.5,0c3.4-0.4,6.7-0.9,10.2-1.4
	c-0.1,0.9-0.2,1.9-0.4,2.9c-0.2,1.4-0.5,2.9-0.7,4.3c-0.1,0.7-0.5,1.1-1.2,1.3c-4.3,1-8.7,1.7-13.2,1.8c-3.6,0.1-7.3,0-10.9-0.2
	c-2.4-0.2-4.9-0.7-7.2-1.3c-3.1-0.8-6.1-1.9-8.6-3.9c-3.5-2.8-5.6-6.4-6.1-10.9c-1-9.5,3.3-16.3,11.2-21c3.9-2.3,8.3-3.3,12.8-3.7
	c4-0.3,8-0.2,11.8,1c5.4,1.7,10,4.5,12.6,9.8c1.7,3.5,1.9,7.2,1.5,11c-0.2,1.9-0.3,1.9-2.3,1.9h-30.6H240.5z M260.9,131.1
	c0.2-3-1.3-5.8-4-7.1c-2.3-1.1-4.7-1.3-7.2-1c-4.3,0.5-7.9,3.7-8.6,8.1H260.9z"/>
<path class="st1" d="M240.5,138.9c0,1.9,0.8,3.3,1.9,4.5c2.1,2.3,4.9,3.3,7.9,3.8c4.2,0.8,8.4,0.5,12.5,0c3.4-0.4,6.7-0.9,10.2-1.4
	c-0.1,0.9-0.2,1.9-0.4,2.9c-0.2,1.4-0.5,2.9-0.7,4.3c-0.1,0.7-0.5,1.1-1.2,1.3c-4.3,1-8.7,1.7-13.2,1.8c-3.6,0.1-7.3,0-10.9-0.2
	c-2.4-0.2-4.9-0.7-7.2-1.3c-3.1-0.8-6.1-1.9-8.6-3.9c-3.5-2.8-5.6-6.4-6.1-10.9c-1-9.5,3.3-16.3,11.2-21c3.9-2.3,8.3-3.3,12.8-3.7
	c4-0.3,8-0.2,11.8,1c5.4,1.7,10,4.5,12.6,9.8c1.7,3.5,1.9,7.2,1.5,11c-0.2,1.9-0.3,1.9-2.3,1.9h-30.6H240.5z M260.9,131.1
	c0.2-3-1.3-5.8-4-7.1c-2.3-1.1-4.7-1.3-7.2-1c-4.3,0.5-7.9,3.7-8.6,8.1H260.9z"/>
<path class="st1" d="M240.5,138.9c0,1.9,0.8,3.3,1.9,4.5c2.1,2.3,4.9,3.3,7.9,3.8c4.2,0.8,8.4,0.5,12.5,0c3.4-0.4,6.7-0.9,10.2-1.4
	c-0.1,0.9-0.2,1.9-0.4,2.9c-0.2,1.4-0.5,2.9-0.7,4.3c-0.1,0.7-0.5,1.1-1.2,1.3c-4.3,1-8.7,1.7-13.2,1.8c-3.6,0.1-7.3,0-10.9-0.2
	c-2.4-0.2-4.9-0.7-7.2-1.3c-3.1-0.8-6.1-1.9-8.6-3.9c-3.5-2.8-5.6-6.4-6.1-10.9c-1-9.5,3.3-16.3,11.2-21c3.9-2.3,8.3-3.3,12.8-3.7
	c4-0.3,8-0.2,11.8,1c5.4,1.7,10,4.5,12.6,9.8c1.7,3.5,1.9,7.2,1.5,11c-0.2,1.9-0.3,1.9-2.3,1.9h-30.6H240.5z M260.9,131.1
	c0.2-3-1.3-5.8-4-7.1c-2.3-1.1-4.7-1.3-7.2-1c-4.3,0.5-7.9,3.7-8.6,8.1H260.9z"/>
<path class="st0" d="M221.2,125.1c-1.7-0.3-3.3-0.5-4.9-0.8c-5.8-1-11.7-1.3-17.5-1c-0.9,0-1.8,0.3-2.6,0.6
	c-1.2,0.4-1.5,1.5-0.5,2.2c1.5,1,3.2,1.8,4.9,2.6c5,2.3,10.2,4.5,15.1,6.9c2.4,1.2,4.5,2.8,5.7,5.3c1.9,3.8,0.8,8.1-2.7,10.6
	c-2.5,1.8-5.3,2.7-8.3,3.3c-6,1.1-12,1.1-18.1,0.7c-2.8-0.2-5.6-0.3-8.5-0.5c-2.2-0.2-4.5-0.4-6.7-0.7c-0.2,0-0.6-0.4-0.6-0.6
	c0.1-2.8,0.3-5.6,0.5-8.4c4.2,0.5,8.2,1.3,12.2,1.5c4.1,0.3,8.3,0.1,12.5,0.1c0.3,0,0.7-0.1,1-0.3c1.3-0.6,1.4-1.8,0.2-2.5
	c-1.7-0.9-3.5-1.7-5.3-2.5c-3.8-1.6-7.7-3.1-11.4-4.8c-2.4-1-4.6-2.4-6.4-4.3c-3.9-4.1-3.3-10.2,1.3-13.5c3-2.2,6.5-3.2,10.1-3.7
	c4.8-0.8,9.7-1,14.6-0.6c5,0.4,10,1.1,15,1.6c0.5,0.1,0.9,0.2,0.8,0.9C221.7,119.9,221.4,122.5,221.2,125.1"/>
<path class="st1" d="M221.2,125.1c-1.7-0.3-3.3-0.5-4.9-0.8c-5.8-1-11.7-1.3-17.5-1c-0.9,0-1.8,0.3-2.6,0.6
	c-1.2,0.4-1.5,1.5-0.5,2.2c1.5,1,3.2,1.8,4.9,2.6c5,2.3,10.2,4.5,15.1,6.9c2.4,1.2,4.5,2.8,5.7,5.3c1.9,3.8,0.8,8.1-2.7,10.6
	c-2.5,1.8-5.3,2.7-8.3,3.3c-6,1.1-12,1.1-18.1,0.7c-2.8-0.2-5.6-0.3-8.5-0.5c-2.2-0.2-4.5-0.4-6.7-0.7c-0.2,0-0.6-0.4-0.6-0.6
	c0.1-2.8,0.3-5.6,0.5-8.4c4.2,0.5,8.2,1.3,12.2,1.5c4.1,0.3,8.3,0.1,12.5,0.1c0.3,0,0.7-0.1,1-0.3c1.3-0.6,1.4-1.8,0.2-2.5
	c-1.7-0.9-3.5-1.7-5.3-2.5c-3.8-1.6-7.7-3.1-11.4-4.8c-2.4-1-4.6-2.4-6.4-4.3c-3.9-4.1-3.3-10.2,1.3-13.5c3-2.2,6.5-3.2,10.1-3.7
	c4.8-0.8,9.7-1,14.6-0.6c5,0.4,10,1.1,15,1.6c0.5,0.1,0.9,0.2,0.8,0.9C221.7,119.9,221.4,122.5,221.2,125.1"/>
<path class="st1" d="M221.2,125.1c-1.7-0.3-3.3-0.5-4.9-0.8c-5.8-1-11.7-1.3-17.5-1c-0.9,0-1.8,0.3-2.6,0.6
	c-1.2,0.4-1.5,1.5-0.5,2.2c1.5,1,3.2,1.8,4.9,2.6c5,2.3,10.2,4.5,15.1,6.9c2.4,1.2,4.5,2.8,5.7,5.3c1.9,3.8,0.8,8.1-2.7,10.6
	c-2.5,1.8-5.3,2.7-8.3,3.3c-6,1.1-12,1.1-18.1,0.7c-2.8-0.2-5.6-0.3-8.5-0.5c-2.2-0.2-4.5-0.4-6.7-0.7c-0.2,0-0.6-0.4-0.6-0.6
	c0.1-2.8,0.3-5.6,0.5-8.4c4.2,0.5,8.2,1.3,12.2,1.5c4.1,0.3,8.3,0.1,12.5,0.1c0.3,0,0.7-0.1,1-0.3c1.3-0.6,1.4-1.8,0.2-2.5
	c-1.7-0.9-3.5-1.7-5.3-2.5c-3.8-1.6-7.7-3.1-11.4-4.8c-2.4-1-4.6-2.4-6.4-4.3c-3.9-4.1-3.3-10.2,1.3-13.5c3-2.2,6.5-3.2,10.1-3.7
	c4.8-0.8,9.7-1,14.6-0.6c5,0.4,10,1.1,15,1.6c0.5,0.1,0.9,0.2,0.8,0.9C221.7,119.9,221.4,122.5,221.2,125.1z"/>
<path class="st0" d="M336.1,135.7c-1.6-0.9-2.8-2.2-4-3.5c-3.5-4-2.7-9.8,1.7-12.9c3-2.2,6.5-3.2,10.1-3.7c4.8-0.8,9.7-1,14.6-0.6
	c5,0.4,10,1.1,15,1.6c0.7,0.1,0.9,0.4,0.8,1.1c-0.3,2.4-0.5,4.9-0.7,7.4c-1.7-0.3-3.3-0.5-4.8-0.8c-5.8-1-11.6-1.3-17.5-1
	c-0.8,0-1.7,0.2-2.4,0.5c-0.5,0.2-1.1,0.7-1.2,1.1c-0.1,0.4,0.3,1.1,0.7,1.4c1,0.7,2.1,1.3,3.2,1.8c4.9,2.2,9.9,4.3,14.8,6.5
	c2.5,1.1,4.8,2.6,6.6,4.8c3,3.7,2.3,9.2-1.5,12c-2.9,2.1-6.2,3-9.6,3.6c-5.2,0.9-10.5,0.8-15.8,0.6c-4.9-0.2-9.8-0.6-14.7-1
	c-2-0.2-2.1-0.2-2-2.2c0.1-2.3,0.3-4.7,0.5-7c4.2,0.5,8.3,1.2,12.4,1.5c4.1,0.3,8.2,0.1,12.2,0.1c0.3,0,0.7-0.1,0.9-0.3
	c0.4-0.3,1-0.8,1.1-1.2c0-0.4-0.4-1.1-0.8-1.4c-1.3-0.7-2.7-1.4-4.1-2c-3.6-1.5-7.1-2.9-10.7-4.3
	C340.8,137.9,339.5,137.5,336.1,135.7"/>
<path class="st1" d="M336.1,135.7c-1.6-0.9-2.8-2.2-4-3.5c-3.5-4-2.7-9.8,1.7-12.9c3-2.2,6.5-3.2,10.1-3.7c4.8-0.8,9.7-1,14.6-0.6
	c5,0.4,10,1.1,15,1.6c0.7,0.1,0.9,0.4,0.8,1.1c-0.3,2.4-0.5,4.9-0.7,7.4c-1.7-0.3-3.3-0.5-4.8-0.8c-5.8-1-11.6-1.3-17.5-1
	c-0.8,0-1.7,0.2-2.4,0.5c-0.5,0.2-1.1,0.7-1.2,1.1c-0.1,0.4,0.3,1.1,0.7,1.4c1,0.7,2.1,1.3,3.2,1.8c4.9,2.2,9.9,4.3,14.8,6.5
	c2.5,1.1,4.8,2.6,6.6,4.8c3,3.7,2.3,9.2-1.5,12c-2.9,2.1-6.2,3-9.6,3.6c-5.2,0.9-10.5,0.8-15.8,0.6c-4.9-0.2-9.8-0.6-14.7-1
	c-2-0.2-2.1-0.2-2-2.2c0.1-2.3,0.3-4.7,0.5-7c4.2,0.5,8.3,1.2,12.4,1.5c4.1,0.3,8.2,0.1,12.2,0.1c0.3,0,0.7-0.1,0.9-0.3
	c0.4-0.3,1-0.8,1.1-1.2c0-0.4-0.4-1.1-0.8-1.4c-1.3-0.7-2.7-1.4-4.1-2c-3.6-1.5-7.1-2.9-10.7-4.3
	C340.8,137.9,339.5,137.5,336.1,135.7"/>
<path class="st1" d="M336.1,135.7c-1.6-0.9-2.8-2.2-4-3.5c-3.5-4-2.7-9.8,1.7-12.9c3-2.2,6.5-3.2,10.1-3.7c4.8-0.8,9.7-1,14.6-0.6
	c5,0.4,10,1.1,15,1.6c0.7,0.1,0.9,0.4,0.8,1.1c-0.3,2.4-0.5,4.9-0.7,7.4c-1.7-0.3-3.3-0.5-4.8-0.8c-5.8-1-11.6-1.3-17.5-1
	c-0.8,0-1.7,0.2-2.4,0.5c-0.5,0.2-1.1,0.7-1.2,1.1c-0.1,0.4,0.3,1.1,0.7,1.4c1,0.7,2.1,1.3,3.2,1.8c4.9,2.2,9.9,4.3,14.8,6.5
	c2.5,1.1,4.8,2.6,6.6,4.8c3,3.7,2.3,9.2-1.5,12c-2.9,2.1-6.2,3-9.6,3.6c-5.2,0.9-10.5,0.8-15.8,0.6c-4.9-0.2-9.8-0.6-14.7-1
	c-2-0.2-2.1-0.2-2-2.2c0.1-2.3,0.3-4.7,0.5-7c4.2,0.5,8.3,1.2,12.4,1.5c4.1,0.3,8.2,0.1,12.2,0.1c0.3,0,0.7-0.1,0.9-0.3
	c0.4-0.3,1-0.8,1.1-1.2c0-0.4-0.4-1.1-0.8-1.4c-1.3-0.7-2.7-1.4-4.1-2c-3.6-1.5-7.1-2.9-10.7-4.3
	C340.8,137.9,339.5,137.5,336.1,135.7z"/>
<path class="st0" d="M157,115.7h16.9c-1,13.3-2,26.5-3,39.7h-16.9C154.9,142.2,155.9,129,157,115.7"/>
<path class="st1" d="M157,115.7h16.9c-1,13.3-2,26.5-3,39.7h-16.9C154.9,142.2,155.9,129,157,115.7"/>
<path class="st1" d="M157,115.7h16.9c-1,13.3-2,26.5-3,39.7h-16.9C154.9,142.2,155.9,129,157,115.7z"/>
<path class="st0" d="M157.4,111.4c0.3-3.6,0.5-7,0.8-10.5c0.4,0,0.8,0,1.1,0c4,0,7.9,0,11.9,0c2.9,0,3.8,1.1,3.6,3.9
	c-0.1,1.1-0.2,2.2-0.2,3.4c-0.1,1.1-0.1,2.1-0.2,3.2H157.4z"/>
<path class="st1" d="M157.4,111.4c0.3-3.6,0.5-7,0.8-10.5c0.4,0,0.8,0,1.1,0c4,0,7.9,0,11.9,0c2.9,0,3.8,1.1,3.6,3.9
	c-0.1,1.1-0.2,2.2-0.2,3.4c-0.1,1.1-0.1,2.1-0.2,3.2H157.4z"/>
<path class="st1" d="M157.4,111.4c0.3-3.6,0.5-7,0.8-10.5c0.4,0,0.8,0,1.1,0c4,0,7.9,0,11.9,0c2.9,0,3.8,1.1,3.6,3.9
	c-0.1,1.1-0.2,2.2-0.2,3.4c-0.1,1.1-0.1,2.1-0.2,3.2H157.4z"/>
<path class="st0" d="M93,100.9c4.7,0,9.1-0.1,13.6,0c2.3,0,3.6,1.5,3.4,3.8c-0.4,5-0.8,10-1.2,15.1h24.4c0.5-6.3,1-12.5,1.5-18.9
	h17.2c-0.1,1.2-0.1,2.3-0.2,3.5c-0.4,5.1-0.9,10.2-1.3,15.4c-0.3,4.1-0.6,8.3-0.9,12.4c-0.3,4.3-0.7,8.5-1,12.8
	c-0.2,3.2-0.5,6.3-0.7,9.5c0,0.6-0.1,1-0.9,1c-5.4,0-10.8,0-16.4,0c0.6-8,1.2-16,1.8-24.1h-24.4c-0.6,8-1.2,15.9-1.9,24H88.7
	c0.1-2.1,0.3-4.2,0.4-6.2c0.2-2.2,1.8-22.8,2.3-28.8C91.9,115.3,92.9,102.3,93,100.9"/>
<path class="st0" d="M277.5,155.7c0.8-12.8,1.6-25.6,2.5-38.4c2.8-0.3,5.4-0.6,8.1-0.9c4.4-0.3,8.8-0.8,13.2-0.9
	c4.6-0.1,9.2,0.1,13.8,0.4c2.8,0.2,5.6,1,7.9,2.9c2.6,2.3,3.4,5.3,3.4,8.6c0,2.9-0.3,5.9-0.5,8.8c-0.2,2.8-0.4,5.6-0.6,8.3
	c-0.2,3.7-0.5,7.4-0.7,11.1h-15.8c0.1-2.4,0.3-4.8,0.4-7.1c0.2-2.6,0.4-5.2,0.6-7.8c0.2-4,0.5-8.1,0.7-12.1c0.1-2.6-1.2-4.1-3.8-4.4
	c-1.5-0.2-3-0.3-4.4-0.2c-2.3,0.1-4.6,0.4-7,0.6c-0.6,10.4-1.3,20.7-1.9,31.1H277.5z"/>
<path class="st0" d="M392.8,138.9c0.3,2.9,1.8,4.8,4,6.2c3.6,2.2,7.5,2.6,11.6,2.6c5.7,0,11.3-0.8,17.1-1.9c-0.3,1.7-0.5,3.3-0.7,5
	c-0.1,0.7-0.3,1.5-0.3,2.2c-0.1,0.8-0.4,1.2-1.2,1.4c-4.9,1.1-9.9,1.7-15,1.8c-5.3,0.1-10.5-0.2-15.7-1.4c-4.1-0.9-7.8-2.5-10.8-5.6
	c-3.8-3.9-5.3-8.7-4.6-13.9c1.3-9.8,7.3-15.7,16.5-18.8c3.2-1.1,6.5-1.5,9.9-1.6c4.7-0.2,9.3,0.6,13.5,2.7
	c5.7,2.7,9.3,7.1,10.1,13.5c0.3,2.3,0,4.7-0.1,7.1c0,0.2-0.4,0.5-0.6,0.6c-0.3,0.1-0.6,0-1,0c-10.4,0-20.7,0-31.1,0H392.8z
	 M393.6,131.1h20c0-0.2-0.1-0.4-0.1-0.6c0-0.2-0.1-0.4-0.1-0.5c-0.3-3-1.9-5.1-4.6-6.2c-2-0.8-4.1-1-6.2-0.7
	C397.9,123.6,394.6,126.5,393.6,131.1"/>
<path class="st0" d="M240.5,138.9c0,1.9,0.8,3.3,1.9,4.5c2.1,2.3,4.9,3.3,7.9,3.8c4.2,0.8,8.4,0.5,12.5,0c3.4-0.4,6.7-0.9,10.2-1.4
	c-0.1,0.9-0.2,1.9-0.4,2.9c-0.2,1.4-0.5,2.9-0.7,4.3c-0.1,0.7-0.5,1.1-1.2,1.3c-4.3,1-8.7,1.7-13.2,1.8c-3.6,0.1-7.3,0-10.9-0.2
	c-2.4-0.2-4.9-0.7-7.2-1.3c-3.1-0.8-6.1-1.9-8.6-3.9c-3.5-2.8-5.6-6.4-6.1-10.9c-1-9.5,3.3-16.3,11.2-21c3.9-2.3,8.3-3.3,12.8-3.7
	c4-0.3,8-0.2,11.8,1c5.4,1.7,10,4.5,12.6,9.8c1.7,3.5,1.9,7.2,1.5,11c-0.2,1.9-0.3,1.9-2.3,1.9h-30.6H240.5z M260.9,131.1
	c0.2-3-1.3-5.8-4-7.1c-2.3-1.1-4.7-1.3-7.2-1c-4.3,0.5-7.9,3.7-8.6,8.1H260.9z"/>
<path class="st0" d="M221.2,125.1c-1.7-0.3-3.3-0.5-4.9-0.8c-5.8-1-11.7-1.3-17.5-1c-0.9,0-1.8,0.3-2.6,0.6
	c-1.2,0.4-1.5,1.5-0.5,2.2c1.5,1,3.2,1.8,4.9,2.6c5,2.3,10.2,4.5,15.1,6.9c2.4,1.2,4.5,2.8,5.7,5.3c1.9,3.8,0.8,8.1-2.7,10.6
	c-2.5,1.8-5.3,2.7-8.3,3.3c-6,1.1-12,1.1-18.1,0.7c-2.8-0.2-5.6-0.3-8.5-0.5c-2.2-0.2-4.5-0.4-6.7-0.7c-0.2,0-0.6-0.4-0.6-0.6
	c0.1-2.8,0.3-5.6,0.5-8.4c4.2,0.5,8.2,1.3,12.2,1.5c4.1,0.3,8.3,0.1,12.5,0.1c0.3,0,0.7-0.1,1-0.3c1.3-0.6,1.4-1.8,0.2-2.5
	c-1.7-0.9-3.5-1.7-5.3-2.5c-3.8-1.6-7.7-3.1-11.4-4.8c-2.4-1-4.6-2.4-6.4-4.3c-3.9-4.1-3.3-10.2,1.3-13.5c3-2.2,6.5-3.2,10.1-3.7
	c4.8-0.8,9.7-1,14.6-0.6c5,0.4,10,1.1,15,1.6c0.5,0.1,0.9,0.2,0.8,0.9C221.7,119.9,221.4,122.5,221.2,125.1"/>
<path class="st0" d="M336.1,135.7c-1.6-0.9-2.8-2.2-4-3.5c-3.5-4-2.7-9.8,1.7-12.9c3-2.2,6.5-3.2,10.1-3.7c4.8-0.8,9.7-1,14.6-0.6
	c5,0.4,10,1.1,15,1.6c0.7,0.1,0.9,0.4,0.8,1.1c-0.3,2.4-0.5,4.9-0.7,7.4c-1.7-0.3-3.3-0.5-4.8-0.8c-5.8-1-11.6-1.3-17.5-1
	c-0.8,0-1.7,0.2-2.4,0.5c-0.5,0.2-1.1,0.7-1.2,1.1c-0.1,0.4,0.3,1.1,0.7,1.4c1,0.7,2.1,1.3,3.2,1.8c4.9,2.2,9.9,4.3,14.8,6.5
	c2.5,1.1,4.8,2.6,6.6,4.8c3,3.7,2.3,9.2-1.5,12c-2.9,2.1-6.2,3-9.6,3.6c-5.2,0.9-10.5,0.8-15.8,0.6c-4.9-0.2-9.8-0.6-14.7-1
	c-2-0.2-2.1-0.2-2-2.2c0.1-2.3,0.3-4.7,0.5-7c4.2,0.5,8.3,1.2,12.4,1.5c4.1,0.3,8.2,0.1,12.2,0.1c0.3,0,0.7-0.1,0.9-0.3
	c0.4-0.3,1-0.8,1.1-1.2c0-0.4-0.4-1.1-0.8-1.4c-1.3-0.7-2.7-1.4-4.1-2c-3.6-1.5-7.1-2.9-10.7-4.3
	C340.8,137.9,339.5,137.5,336.1,135.7"/>
<path class="st0" d="M157,115.7h16.9c-1,13.3-2,26.5-3,39.7h-16.9C154.9,142.2,155.9,129,157,115.7"/>
<path class="st0" d="M157.4,111.4c0.3-3.6,0.5-7,0.8-10.5c0.4,0,0.8,0,1.1,0c4,0,7.9,0,11.9,0c2.9,0,3.8,1.1,3.6,3.9
	c-0.1,1.1-0.2,2.2-0.2,3.4c-0.1,1.1-0.1,2.1-0.2,3.2H157.4z"/>
</svg>
