<svg version="1.1" xmlns="http://www.w3.org/2000/svg" xmlns:xlink="http://www.w3.org/1999/xlink" x="0px" y="0px"
	 width="512px" height="512px" viewBox="0 0 512 512" xml:space="preserve">
<path fill="#B2B2B2" d="M381.089,350.229c-4.688,10.831-10.239,20.801-16.667,29.967c-8.765,12.494-15.94,21.145-21.472,25.946
	c-8.571,7.884-17.757,11.923-27.593,12.152c-7.061,0-15.576-2.011-25.487-6.085c-9.945-4.059-19.085-6.065-27.442-6.065
	c-8.764,0-18.162,2.007-28.217,6.065c-10.069,4.074-18.18,6.199-24.381,6.41c-9.432,0.402-18.835-3.75-28.218-12.476
	c-5.989-5.225-13.481-14.18-22.456-26.868c-9.628-13.548-17.544-29.256-23.748-47.168c-6.641-19.347-9.971-38.08-9.971-56.216
	c0-20.776,4.49-38.694,13.48-53.71c7.067-12.061,16.469-21.575,28.236-28.56c11.765-6.985,24.479-10.544,38.17-10.771
	c7.493,0,17.315,2.317,29.525,6.871c12.173,4.569,19.991,6.887,23.419,6.887c2.56,0,11.245-2.709,25.965-8.112
	c13.921-5.009,25.671-7.083,35.297-6.267c26.081,2.105,45.677,12.387,58.707,30.91c-23.327,14.134-34.864,33.929-34.637,59.324
	c0.213,19.78,7.389,36.24,21.49,49.31c6.391,6.066,13.529,10.754,21.472,14.084C384.839,340.853,383.021,345.636,381.089,350.229
	L381.089,350.229z M321.27,114.844c0,15.504-5.662,29.979-16.953,43.378c-13.624,15.928-30.104,25.132-47.973,23.681
	c-0.229-1.86-0.361-3.818-0.361-5.875c0-14.883,6.479-30.812,17.986-43.835c5.744-6.595,13.05-12.078,21.909-16.451
	c8.841-4.308,17.203-6.691,25.066-7.099C321.176,110.714,321.27,112.786,321.27,114.844L321.27,114.844z"/>
</svg>
