<svg version="1.1" xmlns="http://www.w3.org/2000/svg" xmlns:xlink="http://www.w3.org/1999/xlink" x="0px" y="0px"
	 width="512px" height="512px" viewBox="0 0 512 512" xml:space="preserve">
<g id="Layer_1_1_">
	<g fill="#B2B2B2">
		<path d="M232.312,225.115c0,7.903-6.403,14.313-14.311,14.313c-7.907,0-14.311-6.411-14.311-14.313
			c0-7.911,6.404-14.315,14.311-14.315C225.909,210.793,232.312,217.204,232.312,225.115 M256,365.521
			c-56.253,0-101.868-45.609-101.868-101.875c0-56.26,45.615-101.873,101.868-101.873c1.483,0,2.961,0.027,4.431,0.095l-0.013,9.273
			c-1.463-0.065-2.935-0.106-4.418-0.106c-51.145,0.008-92.6,41.465-92.6,92.61c0,51.144,41.455,92.606,92.6,92.606
			c49.749,0,90.343-39.227,92.511-88.439l0.021-0.278H285.78v-9.343h71.952c0.088,1.816,0.143,3.621,0.143,5.454
			C357.875,319.911,312.26,365.521,256,365.521 M285.638,306.469v9.344h-25.207v0.062h-9.344V211.229h9.344v95.245h25.207V306.469z
			 M256,141.95c-67.21,0-121.695,54.496-121.695,121.696c0,67.209,54.484,121.693,121.695,121.693
			c67.217,0,121.695-54.489,121.695-121.693C377.695,196.446,323.217,141.95,256,141.95"/>
	</g>
</g>
</svg>
