<svg version="1.1" xmlns="http://www.w3.org/2000/svg" xmlns:xlink="http://www.w3.org/1999/xlink" x="0px" y="0px"
	 width="512px" height="512px" viewBox="0 0 512 512" xml:space="preserve">
<g>
	<g fill="#B2B2B2">
		<path d="M394.89,372.151c-9.085-3.727-16.569-9.599-16.026-20.841c0.527-11.229-8.028-18.669-8.028-18.669
			s7.485-24.583,0.528-44.882c-6.941-20.327-29.911-52.896-47.539-77.464c-17.597-24.584-2.655-52.911-18.668-89.221
			c-16.043-36.311-57.694-34.183-80.137-18.685c-22.455,15.47-15.512,53.923-14.456,72.123c1.072,18.141,0.484,31.071-1.585,35.768
			c-2.113,4.697-16.556,21.927-26.184,36.339c-9.613,14.414-16.557,44.339-23.527,56.623c-6.941,12.285-2.128,23.499-2.128,23.499
			s-4.813,1.586-8.557,9.643c-3.743,7.984-11.213,11.727-24.569,14.368c-13.355,2.673-13.355,11.258-10.156,20.871
			c3.215,9.6,0.016,14.971-3.729,27.226c-3.742,12.256,14.956,16.027,33.112,18.126c18.169,2.158,38.468,13.914,55.581,16.044
			c17.07,2.142,22.427-11.743,22.427-11.743s19.228-4.301,39.51-4.8c20.313-0.543,39.511,4.271,39.511,4.271
			s3.743,8.542,10.686,12.27c6.957,3.743,21.912,4.286,31.525-5.841c9.629-10.172,35.27-22.97,49.682-30.998
			C406.617,388.136,403.975,375.866,394.89,372.151z M269.871,136.574c9.158,0,16.556,9.084,16.556,20.283
			c0,7.955-3.712,14.809-9.128,18.141c-1.381-0.602-2.834-1.218-4.374-1.879c3.259-1.614,5.577-5.768,5.577-10.612
			c0-6.311-3.904-11.433-8.732-11.433c-4.77,0-8.689,5.137-8.689,11.433c0,2.335,0.558,4.58,1.514,6.414
			c-2.85-1.13-5.476-2.187-7.531-2.964c-1.114-2.73-1.746-5.812-1.746-9.099C253.316,145.658,260.714,136.574,269.871,136.574z
			 M268.684,179.342c4.579,1.586,9.673,4.564,9.145,7.515c-0.544,2.965-2.95,2.965-9.145,6.751
			c-6.208,3.757-19.652,12.093-23.953,12.636c-4.33,0.544-6.737-1.878-11.316-4.829c-4.579-2.964-13.194-9.995-11.021-13.737
			c0,0,6.707-5.137,9.656-7.823c2.966-2.699,10.51-9.144,15.089-8.307C251.718,172.327,264.104,177.727,268.684,179.342z
			 M227.397,139.788c7.221,0,13.092,8.601,13.092,19.212c0,1.952-0.191,3.757-0.559,5.504c-1.761,0.602-3.552,1.571-5.282,3.038
			c-0.881,0.719-1.66,1.395-2.408,2.069c1.146-2.142,1.6-5.195,1.086-8.41c-0.969-5.796-4.828-10.024-8.66-9.422
			c-3.814,0.661-6.12,5.87-5.15,11.697c0.982,5.828,4.828,10.055,8.644,9.423c0.221-0.045,0.427-0.103,0.646-0.176
			c-1.863,1.791-3.58,3.332-5.327,4.637c-5.283-2.451-9.158-9.746-9.158-18.376C214.32,148.374,220.176,139.788,227.397,139.788z
			 M213.293,409.71c-1.703,7.662-10.67,13.225-10.67,13.225c-8.132,2.554-30.734-7.251-40.979-11.55
			c-10.23-4.243-36.281-5.563-39.701-9.35c-3.391-3.875,1.702-12.402,3.009-20.49c1.262-8.146-2.554-13.238-1.291-18.801
			c1.291-5.533,17.934-5.533,24.319-9.363c6.413-3.86,7.69-14.956,12.813-17.935c5.122-3.01,14.5,7.661,18.346,13.663
			c3.831,5.944,18.347,31.57,24.32,37.97C209.447,393.479,214.996,402.05,213.293,409.71z M307.768,335.269
			c-1.541,7.53-1.541,34.741-1.541,34.741s-16.556,22.94-42.226,26.696c-25.64,3.759-38.468,1.058-38.468,1.058l-14.413-16.541
			c0,0,11.198-1.629,9.613-12.842c-1.615-11.214-34.183-26.712-40.067-40.611c-5.856-13.868-1.057-37.397,6.428-49.154
			c7.471-11.74,12.256-37.366,19.741-45.938c7.485-8.512,13.341-26.683,10.67-34.711c0,0,16.027,19.242,27.226,16.056
			c11.214-3.213,36.355-21.927,40.067-18.698c3.729,3.214,35.783,73.708,38.968,96.147c3.214,22.428-2.144,39.512-2.144,39.512
			S309.352,327.784,307.768,335.269z M389.753,385.597c-4.99,4.579-32.759,15.793-41.081,24.54
			c-8.278,8.673-19.095,15.733-25.714,13.678c-6.664-2.099-12.462-11.212-9.556-24.509c2.891-13.255,5.402-27.784,4.991-36.092
			s-2.101-19.536,0-21.194c2.07-1.613,5.371-0.807,5.371-0.807s-1.629,15.749,7.896,19.931c9.524,4.11,23.233-1.658,27.387-5.841
			c4.168-4.123,7.074-10.348,7.074-10.348s4.14,2.099,3.728,8.72c-0.41,6.635,2.891,16.203,9.146,19.505
			C385.202,376.452,394.743,381.047,389.753,385.597z"/>
	</g>
</g>
</svg>
