<svg version="1.1" xmlns="http://www.w3.org/2000/svg" xmlns:xlink="http://www.w3.org/1999/xlink" x="0px" y="0px"
	 width="512px" height="256px" viewBox="0 128 512 256" xml:space="preserve">
<g id="Layer_1_2_" fill="#B2B2B2">
	<path d="M93.285,291.098c-4.1,0-5.865-2.799-5.84-5.406c0.051-4.446,9.252-4.283,16.051-7.583
		C103.996,285.304,100.58,291.098,93.285,291.098 M123.697,267.686c0-12.497-1.506-22.399-26.291-22.399
		c-20.693,0-27.609,7.441-27.463,19.696h18.527c0.498-4.503,4.738-6.497,7.635-6.497c2.201,0,6.793,0.499,6.799,4.301
		c0.016,11.385-35.801,0.884-35.801,25.1c0,10.896,11.299,15.316,17.197,15.171c7.799-0.196,13.793-1.598,19.695-7.1l2.27,5.602
		h18.377C123.768,299.553,123.697,267.686,123.697,267.686"/>
	<path d="M490.734,279.581c-0.602,4.096-2.695,9.181-8.102,9.181c-6.539,0-10.109-6.365-10.109-14.266
		c0-6.198,2.318-14.511,10.109-14.511c2.303,0,4.105,0.7,5.406,2.1c1.301,1.304,2.102,3.098,2.203,5.399h19.988
		c-1.502-15.495-13.59-21.493-27.588-21.493c-17.295,0-30.107,10.29-30.107,28.188c0,17.693,13.213,28.576,30.107,28.576
		c14.498,0,26.186-7.283,27.996-23.175H490.734z"/>
	<rect x="430.277" y="247.768" width="20.08" height="53.833"/>
	<rect x="430.277" y="225.788" width="20.08" height="13.75"/>
	<path d="M335.969,288.762c-5.297,0-9.402-5.689-9.402-15.584c0-5.897,2.512-13.197,9.604-13.197
		c5.396-0.3,9.217,5.915,9.217,13.615C345.387,283.493,341.566,288.762,335.969,288.762 M335.869,245.432
		c-17.695,0-29.865,10.62-29.865,28.81c0,17.89,13.172,28.51,29.973,28.51c16.785,0,29.982-10.336,29.982-29.532
		C365.959,256.93,354.363,245.432,335.869,245.432"/>
	<path d="M269.598,260.825c0.051-2.597,2.879-3.806,6.482-3.806c1.602,0,3.846,0.402,4.938,1.304
		c0.535,0.432,1.795,1.977,2.012,3.797h18.895c-0.518-13.979-14.232-16.905-26.486-16.905c-10.895,0-25.027,4.305-25.047,17.709
		c-0.039,21.976,33.58,13.954,33.58,22.342c0,3.705-2.77,5.09-7.74,5.09c-2.002,0-4.154-1.344-5.447-2.345
		c-1.402-1.105-1.979-2.39-2.203-4.797h-18.662c0.359,14.666,13.748,20.139,25.736,20.139c22.24,0,28.664-9.673,28.738-20.572
		C304.543,261.771,269.465,268.373,269.598,260.825"/>
	<path d="M216.438,291.098c-4.102,0-5.861-2.799-5.836-5.406c0.051-4.446,9.252-4.283,16.051-7.583
		C227.145,285.304,223.732,291.098,216.438,291.098 M246.85,267.686c0-12.497-1.502-22.399-26.287-22.399
		c-20.697,0-27.613,7.441-27.467,19.696h18.527c0.492-4.503,4.734-6.497,7.633-6.497c2.199,0,6.795,0.499,6.805,4.301
		c0.008,11.385-35.811,0.884-35.811,25.1c0,10.896,11.301,15.316,17.207,15.171c7.791-0.196,13.797-1.598,19.695-7.1l2.266,5.602
		h18.381C246.924,299.553,246.85,267.686,246.85,267.686"/>
	<path d="M35.979,260.402h-11.57v-17.506h8.471c4.996,0,12.596,1.358,12.596,8.059C45.475,257.148,41.48,260.402,35.979,260.402
		 M37.037,223.937H1.361v77.605h23.047v-24.071h13.434c20.697,0,30.775-11.125,30.775-26.618
		C68.617,236.058,57.73,223.937,37.037,223.937"/>
	<path d="M406.377,245.428c-7.9,0-11.236,1.316-18.578,8.021l0.051-5.955l-19.045-0.017v54.114h19.045v-28.418
		c0-6.694,3.453-10.788,9.852-10.788c5.898,0,7.299,3.091,7.299,8.281v30.925h20.789v-33.118
		C425.789,254.081,420.166,245.428,406.377,245.428"/>
	<path d="M167.406,245.428c-7.893,0-11.229,1.316-18.578,8.021l0.049-5.955l-19.045-0.017v54.114h20.072v-28.418
		c0-6.694,2.639-11.55,9.043-11.55c5.896,0,7.074,3.849,7.074,9.043v30.925h20.797v-33.118
		C186.822,254.081,181.203,245.428,167.406,245.428"/>
</g>
</svg>
