<svg version="1.1" xmlns="http://www.w3.org/2000/svg" xmlns:xlink="http://www.w3.org/1999/xlink" x="0px" y="0px"
	 width="512px" height="256px" viewBox="0 128 512 256" xml:space="preserve">
<g id="Layer_1_3_" fill="#B2B2B2">
	<g>
		<path d="M280.727,260.972c0,0-4.979-3.078-8.065-4.273c0,0-9.527-4.416-11.424-6.52c0,0-3.71-3.496-1.537-7.563
			c0,0,0.912-2.658,4.836-2.658c0,0,5.11,0.274,5.11,4.479v5.927h18.32l-0.031-8.727c0,0,1.406-14.293-21.581-14.923
			c0,0-18.072-1.19-23.257,8.545c0,0-2.035,2.169-2.035,9.737v5.467c0,0-0.21,6.307,3.016,10.372c0,0,1.817,2.657,6.302,5.602
			c0,0,9.109,4.9,14.579,7.71c0,0,5.513,3.148,4.785,8.16c0,0-0.447,5.141-5.773,4.939c0,0-4.877-0.229-4.877-5.268v-5.923h-19.514
			v8.606c0,0-0.549,16.45,24.537,16.45c0,0,23.963,0.482,25.077-16.894v-6.994C289.196,277.225,290.038,266.579,280.727,260.972"/>
		<polygon points="186.958,228.761 180.824,267.196 179.391,267.196 173.529,229.104 142.931,229.104 141.402,298.706 
			159.516,298.706 159.73,246.267 161.161,246.267 170.76,298.699 189.818,298.699 199.303,246.282 200.563,246.282 
			200.998,298.706 219.211,298.706 217.256,228.761 		"/>
		<polygon points="79.12,229.053 67.066,298.627 86.568,298.627 93.705,244.68 95.31,244.68 102.454,298.627 121.944,298.627 
			109.899,229.053 		"/>
		<g>
			<path d="M488.323,260.017v10.26h4.998v11.019c0,5.391-4.603,5.48-4.603,5.48c-5.601,0-5.386-5.113-5.386-5.113v-38.11
				c0-3.926,4.97-4.131,4.97-4.131c4.767,0,4.807,4.677,4.807,4.677v5.799h18.355c0.598-11.306-1.651-14.051-1.651-14.051
				c-4.557-10.225-21.783-9.666-21.783-9.666c-26.48,0-23.545,20.318-23.545,20.318v36.843c0.571,19.056,26.66,17.12,27.102,17.092
				c11.602-1.277,15.108-4.963,15.108-4.963c3.224-2.398,4.057-5.715,4.057-5.715c0.927-1.931,1.151-8.093,1.151-8.093v-21.648
				h-23.58V260.017z"/>
		</g>
		<polygon points="427.463,271.337 426.668,271.337 408.02,228.776 385.736,228.776 385.736,298.717 403.878,298.717 
			402.795,256.16 403.599,256.16 422.901,298.717 444.529,298.717 444.529,228.772 426.158,228.772 		"/>
		<g>
			<path d="M341.441,281.286c0,0,0.265,5.746-5.049,5.746c0,0-5.604,0.292-5.604-5.596l-0.058-52.615h-19.895v52.191
				c0,0-2.042,19.752,25.83,19.752c0,0,24.231,0.292,24.231-18.847v-53.097h-19.454V281.286z"/>
			<path d="M41.179,260.972c0,0-4.972-3.082-8.054-4.273c0,0-9.527-4.412-11.416-6.516c0,0-3.714-3.503-1.541-7.562
				c0,0,0.908-2.663,4.828-2.663c0,0,5.118,0.278,5.118,4.483v5.923H48.43l-0.031-8.731c0,0,1.398-14.293-21.577-14.919
				c0,0-1.731-0.109-4.268,0.015c0,0-13.921,0.753-18.893,8.382c-0.028,0.06-0.071,0.097-0.099,0.148c0,0-2.036,2.169-2.036,9.737
				v5.467c0,0-0.205,6.303,3.02,10.367c0,0,1.817,2.666,6.304,5.606c0,0,9.1,4.9,14.569,7.706c0,0,5.521,3.146,4.793,8.164
				c0,0-0.446,5.145-5.774,4.935c0,0-4.872-0.225-4.872-5.263v-5.933H0.042v8.616c0,0-0.546,16.45,24.535,16.45
				c0,0,23.956,0.487,25.087-16.894v-6.994C49.664,277.225,50.501,266.579,41.179,260.972"/>
		</g>
	</g>
</g>
</svg>
