<svg version="1.1" xmlns="http://www.w3.org/2000/svg" xmlns:xlink="http://www.w3.org/1999/xlink" x="0px" y="0px"
	 width="512px" height="512px" viewBox="0 0 512 512" xml:space="preserve">
<g fill="#B2B2B2">
	<path d="M85.861,338.72c-11.522,0-20.87-10.356-20.87-23.125v-50.558c0-5.797,1.932-11.096,5.109-15.152
		c0.042-0.063,35.1-44.207,39.539-50.437c8.05-11.314,12.045-10.87,20.67-10.87l125.251-0.01h0.435h0.437l125.258,0.01
		c8.625,0,12.62-0.445,20.671,10.87c4.438,6.23,39.495,50.375,39.539,50.437c3.176,4.055,5.109,9.354,5.109,15.152v50.558
		c0,12.769-9.35,23.125-20.872,23.125H256.431h-0.87H85.861L85.861,338.72z M85.861,329.582h340.276
		c6.711,0,12.168-6.467,12.168-14.423v-50.558c0-7.953-5.459-14.428-12.168-14.428H85.861c-6.711,0-12.166,6.476-12.166,14.428
		v50.558C73.695,323.115,79.151,329.582,85.861,329.582z"/>
	<path d="M409.906,289.177c0,7.049-5.719,12.759-12.768,12.759c-7.052,0-12.76-5.71-12.76-12.759c0-7.051,5.708-12.769,12.76-12.769
		C404.188,276.408,409.906,282.126,409.906,289.177z"/>
</g>
</svg>
